<?xml version="1.0" encoding="UTF-8"?>
<svg xmlns="http://www.w3.org/2000/svg" viewBox="0 0 896.38 919.37">
  <defs>
    <style>
      .cls-1 {
        fill: #555554;
      }

      .cls-2 {
        fill: #ffdd9e;
      }

      .cls-3 {
        fill: #b8b8b7;
      }

      .cls-4 {
        fill: #ef7c06;
      }

      .cls-5 {
        fill: #fefefe;
      }
    </style>
  </defs>
  <g id="Layer_1" data-name="Layer 1">
    <g>
      <path d="M410.39,905.86c-47.1-4.2-97.8-17.9-141.6-38.3-93.9-43.8-175.1-126.7-217.3-222C18.39,570.86,6.19,489.86,15.39,405.86c9.7-87.8,43.7-168.5,99.3-235.7,13.8-16.8,46.4-49.2,62.2-61.9,62.1-50,128.4-79.4,206.2-91.4,35.7-5.5,97.1-5.3,133.8.5,59.8,9.5,116.5,31.3,166.5,64.2,48.9,32.2,93.2,76.4,126.4,126.2,41.1,61.5,66.6,135.8,73.1,212.6,2.1,25.3.8,80.7-2.4,100.7-3.1,19.4-4,24.5-5.6,32.4-23.3,113.6-91.1,214.7-188,280.3-56.7,38.4-115.9,60.8-187,70.7-13.5,1.9-73.4,2.8-89.5,1.4h0ZM435.89,873.16c0-1.6.7-11.8,1.5-22.8,1.8-24.5,1.8-23.5.1-23.5-1.4,0-1.5,1.1-3.2,24.3l-.7,8.7h-7.3l-8-17.1c-7.3-15.9-9.4-19.2-11.2-17.5-.7.7-4.1,35.9-4.2,43.4,0,2.9.4,4.2,1.4,4.2,1.4,0,2-3.8,3.2-21.4l.7-9.6h4.4c4.4,0,4.4.1,6.7,5.3,8.2,18.3,13.6,28.7,15,28.7,1.1,0,1.6-.9,1.6-2.7h0ZM479.69,873.16c6.7-4.2,7.2-5.1,7.2-13.5v-7.8l-4.2.1c-2.4.1-5.4.5-6.8.9-2,.7-1.6.8,2.3.9l4.7.1v7.9c0,10.1-1.1,11.1-11.6,11.1-6.8,0-7.4-.2-9.7-3-3.3-3.9-5.1-14.6-4.4-26.3.4-8.4.6-9,3.8-12.3,3-3.1,3.8-3.4,9-3.4,5.8,0,10.9,2.5,10.9,5.5,0,1.5,1.8,3,2.7,2.2.3-.3-.4-1.9-1.6-3.6-2.7-3.8-9.8-6.6-14.6-5.7-4.3.8-10.3,5.9-12.1,10.3-1.7,3.9-1.8,17.2-.4,24.1,1.2,5.6,5.9,11.8,10.4,13.8,3.8,1.7,10.5,1.1,14.4-1.3h0ZM384.89,862.16c3.5-19.7,5.7-38.8,4.7-39.5-.6-.4-1.2-.6-1.3-.5-.4.4-7.4,43.2-7.4,45,0,.9.6,1.7,1.4,1.7.9,0,1.8-2.2,2.6-6.7h0ZM539.89,864.46c10.1-3.9,14.1-13.8,10.7-26.9-3-11.3-8.6-17.8-16.7-19.4-3.4-.6-15.6,1.9-17.1,3.5-.6.6,8,40.5,9.6,45,.6,1.6,5.9.8,13.5-2.2h0ZM366.79,841.96c2.9-11.8,4.9-22.1,4.6-23-.9-2.3-1.7-.5-4.5,10.2l-2.3,8.7h-3.6c-2,0-7.2-1.1-11.6-2.3l-8-2.3-.3-3.7c-.2-2.1.4-7,1.3-10.9,1.4-6.4,1.4-9.1,0-7.6-.5.5-11,39.3-11.7,43.2-.1,1,.2,2.1.8,2.3.7.2,1.6-1.7,2.3-4.4.7-2.6,1.8-7.2,2.7-10l1.5-5.3h4.7c2.6,0,8,1,12,2.1l7.2,2.2v3.8c0,2.1-.7,7-1.5,10.9-1.4,6.8-1.2,10.2.5,8.3.4-.4,3.1-10.4,5.9-22.2ZM579.99,852.66l3.4-1.3-4-.5c-3.9-.5-4.1-.7-6.2-6.5-1.2-3.3-2.2-7.7-2.2-9.8-.1-3.2.3-3.9,2.7-4.9,2.7-1.2,2.6-1.3-1.9-1.6q-4.6-.3-6.2-5.6c-.9-2.9-1.7-7.1-1.7-9.4,0-3.8.3-4.1,3.6-5.2,1.9-.7,3.3-1.4,3.1-1.6-.4-.4-10.7,3.3-11.6,4.1-.8.9,15.2,43.5,16.4,43.5.7,0,2.7-.6,4.6-1.2h0ZM305.09,827.86q9.1-24,13.5-24l3.8-.1-5.5-2.3-5.5-2.2-.7,5c-.3,2.8-1.8,8-3.3,11.6-3.3,8-10.5,27.1-10.5,27.7,0,.3.5.3,1.1.1.7-.2,3.8-7.3,7.1-15.8ZM620.89,835.46l4.4-2.3-5,.4-5,.5-5.8-11.8c-3.2-6.6-7.4-15.4-9.3-19.6-2-4.3-3.9-7.5-4.4-7.3-.9.6,1,5,11.4,26.8,4.2,8.6,7.9,15.7,8.4,15.7.4-.1,2.8-1.1,5.3-2.4h0ZM656.29,815.76c2-1.2,3.6-2.2,3.6-2.3s-1.7,0-3.9.2c-3.4.3-4.1,0-6.4-3-5.4-7.2-7.2-13.9-4.5-16.6.9-.9.4-1.2-2.5-1.2-3.4,0-3.9-.4-6.7-5.2-3.1-5.6-3.8-10.5-1.7-12.7.6-.7-.5-.3-2.5,1l-3.7,2.4,1.8,3c1,1.6,6.2,10.5,11.7,19.8,5.4,9.2,10.2,16.7,10.6,16.7s2.3-.9,4.2-2.1h0ZM248.59,793.56l10.5-16.7h9.3l-5.5-3.5-5.5-3.4-.6,4.2c-.3,2.6-2.5,7.4-5.9,12.7-2.9,4.7-7.5,12-10.2,16.4-2.7,4.3-4.4,7.6-3.8,7.4.7-.2,6-7.9,11.7-17.1h0ZM492.39,794.06c30.7-4.8,67.3-15.5,84.3-24.8,5.8-3.1,4.9-2.8-11.3,3.6-36.9,14.6-72.2,21-115.9,21-32.9,0-55.8-2.7-83.8-9.9-24.3-6.3-40.4-12.4-64-24.2-6.5-3.2-11.8-5.7-11.8-5.4,0,1,32.2,16.4,43.9,21,22.9,9,55.5,17,81.6,19.9,18.7,2.2,59.5,1.5,77-1.2h0ZM680.99,782.26c-6.9-9.1-8.1-11.3-8.1-14.6q0-3.8,4-3.8c4,0,8.7,1.7,24.4,8.7,5.5,2.5,8.3,3.3,9.6,2.7,1.5-.8-.1-3.3-11.9-18.6-7.5-9.7-13.9-18-14.3-18.4-2.3-2.2.1,1.4,7.7,11.6,6.5,8.9,8.5,12.2,8.5,14.8,0,3-.2,3.2-3.7,3.2-2.4,0-9.5-2.4-18.8-6.4-16.7-7-19.6-7.2-14.7-.6,15.3,20.7,24.7,32.9,25,32.6.2-.3-3.3-5.3-7.7-11.2ZM233.99,756.66c2.1-3.9-.3-1.3-8.6,9.2-8.1,10-9.1,11-12.2,11h-3.3v-6.2c0-3.5.9-12.3,2.1-19.6,1.7-10,1.9-13.6,1.1-14.4-.7-.7-1.3-1-1.5-.7-.2.2-5.3,6.3-11.2,13.4-5.9,7.2-12.4,14.7-14.3,16.7-2,2.1-3.3,4.1-2.9,4.4.7.7,1.2.2,10.9-11.8,6.1-7.5,6.5-7.8,10.6-7.8h4.2v4.8c0,2.6-.9,9.9-2,16.2-2.3,13.3-2.4,16.2-.8,17.8.8.8,4.3-2.9,14-15.1,7.1-8.9,13.3-17,13.9-17.9h0ZM469.89,780.36c23.6-1.9,41-5.2,64.1-12.1,17.1-5.1,36.8-12.8,45.9-17.9,3.4-1.9,6.6-3.5,7-3.5,1.6,0,25-14,33.8-20.3,25.9-18.3,51.1-41.7,68.7-63.7,32.9-41,54.4-85.1,66-135,2.3-10.2,3.8-19.6,7.6-47.5,1.2-8.1.7-31.3-1-51.5-2.7-33.3-15.4-78.8-30.3-108.5l-4.4-8.7-5.5,6.2c-5.1,5.9-15.6,14.5-22.5,18.5-3.1,1.7-3.1,1.9-3.8,11.6-.4,6.2-.2,10.8.5,12.6.6,1.5,2.6,8,4.4,14.3l3.3,11.5,8.6.3,8.6.3v6.9h-14v5.4c0,3,.5,5.8,1,6.1.6.4,1,2.5,1,4.8-.2,6.5,1.2,19.7,2.1,20.2.4.3.5,6.4.2,13.5l-.6,13h10.3v3.4c0,3.4-.1,3.5-4.7,3.8l-4.8.3-.6,8c-1.1,14.3-3,28.8-4.6,36-.8,3.8-1.9,9-2.3,11.5-.9,5.1-11,36.2-12,37-.3.3-1.2,2.1-2,4-2.5,6.3-11.7,24.4-16.1,31.5-17.3,27.8-44.4,57.1-70.1,75.9-6.4,4.7-6.8,5.2-6.8,8.9,0,4.5-5.3,14.7-7.5,14.7-2.4,0-8.2,5.8-8.8,8.9-.9,4.4-5,8.5-12.1,12-3.5,1.7-8.8,5.2-11.6,7.8l-5.3,4.7-9.8.6c-8.3.5-10.2,1-12.2,2.8-1.3,1.2-2.7,2.2-3.1,2.2s-2.6,1.6-4.8,3.4c-5.2,4.4-11.5,6.6-19.4,6.6-6.4,0-16.2-1.7-17.8-3.1-1.2-1-3.4.2-13.1,7.2-13,9.4-17.3,10.9-31.4,10.9h-11.8l-8.9-5c-4.9-2.7-9.9-5-11.1-5-2.6,0-12.5,5.1-16.7,8.7-1.6,1.3-4.7,3.3-7,4.5-10.6,5.4-36.3,2.2-44.1-5.6-3.3-3.3-3.4-10.8-.4-16.9,1.4-2.6,2.7-8.1,3.5-14.6,1.1-9.2,1.6-11,4.8-15.5l3.5-5-7.2-3.3c-10-4.6-30.1-14.7-30.7-15.4-.3-.3-3.9-2.7-8-5.3-7.7-4.9-20.5-14.1-22.8-16.3-.7-.7-1.6-1.3-2-1.3-.9,0-5.2,4.3-5.2,5.2,0,.5-2.4,3.7-5.3,7.1-2.8,3.5-6.6,8.1-8.4,10.2-1.7,2.2-6.1,7.8-9.8,12.3-7.6,9.7-7.6,11.2.7,11.2h5l-.3,4c-.3,3.5.1,4.2,3.1,6.3,1.9,1.2,7,4.9,11.2,8,24.6,18.2,63.8,36.7,97.7,46.1,12.2,3.4,31.1,7.4,41.6,8.7,8.5,1.1,46.3,2.8,49.5,2.3.8-.1,4.9-.5,9-.9h0ZM592.19,762.26c10-5,22.7-12.3,22.7-13.1,0-.2-2.4.9-5.2,2.5-2.9,1.7-10.5,5.8-16.8,9.1-13.5,7.1-14,8.1-.7,1.5ZM730.39,756.86c1.8-2,1.7-2-1.2-2-2.6,0-4.9-1.9-15.2-12.6-11.9-12.4-12.1-12.7-12.1-17.2l-.1-4.7-2.5,2.8-2.4,2.9,6.2,6.7c19,20.4,24.4,26.1,24.9,26.1.3,0,1.4-.9,2.4-2h0ZM740.89,744.46c1.8-3.9,1.8-4.8.6-8.8-1.7-5.9-6.5-12.8-11.9-17.1-8.1-6.6-13.5-8.1-18.6-5.3-2.2,1.2-2,1.3,2.7.8,9.3-.9,18,5.5,23.9,17.6,2.4,5,2.6,5.9,1.7,11.3-.6,3.3-.8,5.9-.6,5.9s1.2-2,2.2-4.4h0ZM278.39,746.96c-2-1.8-16.9-11.3-15.5-9.8,1.6,1.6,15.1,10.7,15.9,10.7.3,0,.1-.4-.4-.9ZM633.89,736.96c4.7-3.3,10.1-7.4,12-9.1,1.9-1.7-.1-.5-4.5,2.8-4.4,3.2-11.3,8-15.2,10.7-4,2.6-7.3,5-7.3,5.2,0,.7,5-2.5,15-9.6h0ZM160.19,732.16c3.5-3.7,4.7-4.3,8.2-4.3h4.1l-.4-3.6c-.4-3.2.1-4.1,4.4-8.5,3.6-3.7,5.6-4.9,7.8-4.9,2.8,0,2.9,0,1.1-2-1-1.1-2.1-2-2.5-2s-7.6,7.2-16,16c-15.2,16-15.2,16.1-13.4,18.1l1.9,2.1.3-3.3c.2-2.4,1.6-4.7,4.5-7.6ZM756.99,721.56c-2.7-4.4-2.7-8.7.1-12.3,1.2-1.6,1.5-2.3.8-1.6-.8.6-3,1.2-5.1,1.2-3.4,0-3.9-.5-8.3-7-3.6-5.5-4.6-7.9-4.6-11.1v-4.2l4.8.5c2.6.3,7.7,1.9,11.5,3.6,6.3,2.9,6.7,3.3,6.7,6.4v3.3l8.1-.2c4.5-.1,8.3-.4,8.5-.6.7-.7-41-17.7-43.5-17.7-.5,0-1.4.7-2.1,1.5-1.4,1.7-2.4-.2,13.9,25.8,5.8,9.2,10.7,16.4,10.9,16.2s-.5-1.9-1.7-3.8h0ZM152.59,704.66c6.4-.3,7.6-.7,10.3-3.3,5.1-4.8,6-7.3,4.5-11.8-2-5.8-2.5-5.6-2.5,1.2,0,5.2-.4,6.6-2.5,8.6-1.9,2-3.4,2.5-7.7,2.5-3.1,0-6.2-.6-7.5-1.5-3.3-2.3-6.3-7.9-6.3-11.8,0-3,.7-4.2,4.8-7.7,4.2-3.7,5.1-4.1,9.4-3.8,3.9.3,4.5.1,3.8-1.3-2.2-4-3.5-4-8.6-.2-17.3,13.1-30.5,23.6-30,24,.2.3,3-1.3,6.2-3.6,13.9-10,21.4-.1,12.9,17-2,3.9-3.2,7.5-2.8,8.2s2.3-2.2,4.8-7.5l4-8.6,7.2-.4h0ZM668.39,708.86c2.1-2.2,3.7-4,3.4-4s-2.3,1.8-4.4,4c-2.1,2.2-3.7,4-3.4,4s2.3-1.8,4.4-4ZM213.89,694.36c-2.4-2.5-4.6-4.5-4.9-4.5s1.5,2,3.9,4.5,4.6,4.5,4.9,4.5-1.5-2-3.9-4.5ZM692.89,684.16c0-.8-.9,0-5,4.5l-4.5,4.7,4.8-4.5c2.6-2.4,4.7-4.5,4.7-4.7ZM234.19,683.46c.4-1,1.6-3,2.7-4.5,1.2-1.4,4.8-6.6,8-11.6,3.3-4.9,6.7-10.1,7.7-11.5,5.7-8.4,7.6-11.7,7.5-13.3-.1-1.3-11.7-15.6-15.3-18.7-2.1-1.8-17.1-22.6-19.4-26.8-1.8-3.4-3.5-5.2-4.7-5.2s-1.8-.7-1.8-2.3c0-1.3-2.6-7.5-5.8-13.8-3.2-6.3-6.5-13.3-7.4-15.6-1-2.6-2.3-4.3-3.2-4.3-1.2,0-1.6-1-1.6-3.7,0-4.1-4.7-19.6-6.1-20.1-.5-.2-.9-1.5-.9-2.8,0-1.5-.6-2.4-1.6-2.4-1.3,0-1.5-.8-1.2-4.2.3-2.4-.5-9.9-1.8-16.8-2.7-15.1-4.4-34.9-4.4-52.1,0-11.7,2.5-48.4,3.5-49.8.2-.4,1.5-6,3-12.6s4.6-17.5,7-24.2c4-11.7,4.2-12.8,3.8-20.6l-.6-8.3-3.6-2.1c-2.1-1.2-6.3-4.2-9.3-6.7-3.1-2.5-6-4.6-6.5-4.7-.4,0-3.5-3.2-6.7-7.1l-6-7.1-4.9,10.4c-6.5,13.6-5.9,12.2-9.9,21.9-16.9,41.2-25.5,102.9-20.3,145.8,6,49.2,18.7,87.9,42.7,130.7,14,24.8,38.6,57.5,43.4,57.5,1.9,0,2.4.5,2.4,2.5,0,1.6,1.4,4.1,3.6,6.5l3.7,3.9,1.7-2.2c.9-1.2,2-3,2.3-4.1h0ZM363.89,681.76c1-3.6,2-8.9,2.4-11.8l.7-5.2-3.8-1.5c-15.3-6.4-36.8-18.7-51.7-29.7-5.8-4.3-7-4.8-8-3.6-.6.8-3.9,5.1-7.3,9.6l-6.3,8.1,10.8,8c5.9,4.4,13.6,9.8,17.2,12,16.2,9.8,39.9,21.4,42.9,20.9.9-.1,2.1-2.8,3.1-6.8h0ZM702.49,672.46c5.8-7.5,3.6-5.5-4.1,3.9-3.2,3.9-4.7,5.9-3.2,4.6,1.4-1.3,4.7-5.1,7.3-8.5ZM112.39,674.86c5.4-8.9,5.6-9,14-9,6.5,0,7.7-.3,10.6-2.7,1.7-1.5,3.8-4.2,4.5-6,1.2-2.9,1.2-3.8-.5-8l-2-4.8v7.3c-.1,9.3-1.7,11.2-9.5,11.2-4.4,0-6-.5-8.5-2.6l-3.1-2.6v3c0,1.8-1.9,5.8-5.4,11-4.6,6.8-5.6,9.2-4,9.2.1,0,1.9-2.7,3.9-6h0ZM186.29,661.36c-3.1-4.1-5.9-7.5-6.1-7.5-.3,0-.1.6.4,1.3.5.6,3.1,4,5.7,7.5,2.6,3.4,4.9,6.2,5.2,6.2.2,0-2.1-3.4-5.2-7.5ZM710.89,661.86c3-4.3,1.8-3.7-1.6.7-1.5,2-2.3,3.3-1.6,2.9.6-.3,2.1-2,3.2-3.6h0ZM598.89,652.96c24-18.5,49.6-47.2,64.6-72.7,22.8-38.8,34.7-81.7,34.7-125.4,0-26.8-3.2-48.8-11-74.6l-3.6-12.2-7.3,5.8c-4.1,3.2-8.7,6.7-10.4,7.6-1.6,1-3,2.2-3,2.6,0,.3,1.1,5.2,2.4,10.8,5.3,21.5,6.1,29.6,6.1,59s-1,39.6-7,61.4c-11.1,40.6-34.9,79.2-65.5,106.3-9.9,8.7-24.4,19.7-31.3,23.7-2.7,1.5-4.7,3.1-4.5,3.5s3.3,3.5,7,6.8c6.4,5.7,12.7,8.8,15.3,7.5.6-.3,6.6-4.9,13.5-10.1ZM801.89,661.86c1-1.8.8-2-2.2-2-2.1,0-5.8-1.4-9.6-3.7-5.4-3.2-6.2-4-6.2-6.7,0-2.3-.3-2.7-1.2-1.8-1.9,1.9-6.2,1.4-11.3-1.4l-4.7-2.7.4-6,.4-6-2.3,5.3c-1.3,2.9-2.3,5.6-2.3,6.1s2.6,2.2,5.8,3.8c3.1,1.6,11.3,6.1,18.2,10,6.8,3.9,12.8,7.1,13.2,7.1s1.2-.9,1.8-2h0ZM100.39,653.86c3.6-2.2,6.3-3,9.8-3,4.2,0,4.7-.2,4.7-2.3,0-2.6,1.7-4.7,3.9-4.7.8,0,2.8-1.2,4.3-2.7,1.9-1.8,4.3-2.9,7.3-3.3q4.5-.5,3-2.7l-1.5-2.2-17.8,10.6c-9.7,5.8-18.4,11.2-19.2,11.9-2.4,2.3.2,1.5,5.5-1.6ZM174.29,644.16c-3.8-5.9-15.8-27.2-20.4-36.4-15.8-31.4-27.8-72.6-32.2-110.4-1.7-14.3-1.7-62.5,0-77,4.8-42,15.7-79.7,33.2-114.5,3.3-6.6,5.8-12,5.5-12-.9,0-13.5,25.9-18.5,38.1-11,26.6-19,58.1-22.6,88.4-1.9,16.9-2.3,57.1-.5,72.5,3.4,30.1,11.5,61.8,23.3,91.4,7.4,18.6,30.9,62.6,33.5,62.6.3,0-.3-1.2-1.3-2.7h0ZM727.89,636.36c2.6-5-.3-1.2-3.8,4.9-2,3.4-2,3.7-.3,1.6,1.1-1.4,2.9-4.3,4.1-6.5ZM565.59,628.56c28-18.9,54-48.2,69.7-78.6,6-11.5,13.4-30.2,14.2-35.5.4-2.2,1.1-4.6,1.5-5.2,3.1-3.9,8.3-36.7,7.3-46-.4-4.1-.2-6.4.5-6.8.6-.4.9-1.7.6-2.9-.3-1.2-.9-8.8-1.4-16.8-1-14.9-3.2-30.2-3.9-26.1-.2,1.5-1,2.2-2.4,2.2-1.3,0-5.2,3-9.8,7.5-8.4,8.3-14.4,11.7-27.7,15.5l-8.3,2.4v3.8c0,7.4-9.4,14.3-25.5,18.5-5.4,1.4-10.7,1.8-23,1.8h-16l.3,17.7c.3,15.7.1,18.3-1.6,22.1-1.2,2.7-1.6,5-1.1,6.3.7,2,1.3,2.1,11.1,1.6,9.8-.4,10.6-.3,17,2.6,7.5,3.4,14.8,9.6,17.2,14.6s2,13.9-.9,22.1c-1.9,5.4-2.5,9.1-2.5,16-.2,31.7-9.4,46.7-30.9,50.7l-6.3,1.2.6,5c.4,2.8,1.4,7.7,2.3,10.9,1.3,4.9,1.9,5.7,3.5,5.1,1.1-.3,8-4.7,15.5-9.7h0ZM102.19,627.76c13.6-6.2,20.5-9.8,21.3-11,.8-1.4.5-1.3-14.2,5.6-13.3,6.3-14.2,6.6-20.6,6.3-3.6-.2-6.4.1-6.1.5.5.9,6.2,3.6,7.6,3.7.4,0,5.8-2.3,12-5.1ZM732.39,628.86c.9-1.6,1.3-3,1.1-3-.3,0-1.2,1.4-2.1,3-.9,1.7-1.3,3-1.1,3,.3,0,1.2-1.3,2.1-3ZM277.39,619.16c4.5-6.4,6.5-10,5.9-10.8-.5-.7-4.6-5.8-9.2-11.4-25.8-32-41.6-67-47.8-105.9-2.2-13.8-3-48-1.4-62.7,1.5-15.2,5.6-36.2,8.5-43.7.4-.9-1.8-3-5.7-5.8-3.5-2.4-8.1-6.1-10.4-8.2l-4.1-3.7-3.7,11.7c-8.2,26.2-11.8,49.2-11.8,75.7.1,27.5,4,51,12.8,77.2,9.3,27.9,23.9,55.2,39.8,74.8,8.6,10.6,19,22.5,19.6,22.5.4,0,3.7-4.3,7.5-9.7h0ZM736.39,621.86c.9-1.6,1.3-3,1.1-3-.3,0-1.2,1.4-2.1,3-.9,1.7-1.3,3-1.1,3,.3,0,1.2-1.3,2.1-3ZM330.69,607.16c3.3-4.2,9.7-8.8,21.2-15.2,8.4-4.8,18.1-13,23.1-19.6,3.8-5.1,9.9-19.5,9.9-23.7,0-1.6-1.1-1.8-9.3-1.8h-9.2l-13.7,18.3c-7.6,10-19.3,25.6-26.2,34.6l-12.5,16.4,4.7,3.7,4.7,3.8,2-6.2c1.1-3.4,3.5-8.1,5.3-10.3ZM80.29,607.96c1-1.1,5-3.4,9-5,3.9-1.6,10-4.4,13.6-6.2,3.6-1.7,7.6-3.6,9-4.2,2-.8,2.2-1.1.8-1.4-2.1-.5-30.3,12.9-33.5,15.9-3.5,3.3-4.7,8.1-3.1,12.6l1.3,3.7.5-6.6c.3-4.6,1.1-7.3,2.4-8.8ZM818.79,621.46c1.5-.8,3.4-2.3,4.2-3.2q1.3-1.7-1.1-.1c-1.3.9-3.6,1.7-5.1,1.7s-2.9.7-3.3,1.5c-.7,1.9,1.6,2,5.3.1h0ZM745.39,604.66c22.8-48.1,33.5-94.4,33.5-145.3,0-44.1-6.5-79.8-22.2-121.5-3.8-10.3-18.8-42.3-19.5-41.6-.2.1,2.4,6.1,5.8,13.2,17,35.8,26.5,68,30.9,104.4,3.2,26.2,2.9,68.8-.5,94.1-4.3,31-15,66.5-29.4,97.2-2.7,5.9-4.8,10.7-4.5,10.7s2.9-5.1,5.9-11.2ZM795.19,611.46c1.8-.7,4.3-2.6,5.7-4.2l2.5-2.8-2.9,2.2c-2.1,1.6-4.3,2.2-7.9,2.2-7,0-8.7-1.8-8.7-8.9-.1-4.4-.3-5.2-1.1-3.8-2.8,4.8-.4,11.2,5.4,14.7,3.8,2.4,3.1,2.3,7,.6ZM826.19,599.96c-5-6.6-9.7-7.5-14.5-2.8-1.3,1.2-1.9,1.9-1.4,1.5.6-.5,3.8-.8,7.2-.8,7.3,0,8.4.9,9.3,7.8l.6,4.7.3-3.9c.2-2.7-.3-4.7-1.5-6.5h0ZM321.19,555.36l16.9-24.6-2.4-2.2c-1.2-1.3-4-3.5-6-5-3.7-2.8-3.8-2.9-3.8-9.6,0-9,.7-9.5,10.7-8.6,4.3.3,10.5.7,13.8.8l6,.2,4.5-6.7c5.4-8.1,12.5-19.4,18.9-30.3l4.8-8.1-5.1.8c-2.8.5-36,1.1-73.8,1.5l-68.8.6.1,3.6c0,3.3.8,8.8,3.8,26.6,1.8,11,10,35.8,14.6,44.5.7,1.4,2.8,5.4,4.5,9,4.2,8.5,11.1,20,11.9,20,.3,0,1.2,1.3,1.9,2.8.6,1.6,2,3.7,3,4.8,1,1,2.1,2.6,2.4,3.4.3.8,3.6,5,7.3,9.3l6.7,7.8,5.6-8c3.1-4.4,13.3-19.1,22.5-32.6h0ZM793.69,587.76c1.2-.5,2.2-1.3,2.2-1.9,0-1.4-.5-1.3-5,1-6.4,3.3-4.9,3.7,2.8.9ZM73.39,585.96c-.3-.5-1.9-1.2-3.5-1.6-1.6-.4-4.1-2-5.5-3.7-2.1-2.5-2.5-4-2.5-9.1,0-10.7,4.2-14.9,16.8-16.8,3.7-.5,8.4-1.2,10.4-1.6,2.1-.3,5.1,0,6.8.6,4.8,1.6,2.5-.5-2.5-2.5-13.3-5-34.5,6.9-34.5,19.4,0,4.6,4.2,11.4,8.6,13.9,4,2.3,6.9,3,5.9,1.4h0ZM103.49,572.76c1.5-3.1,1.7-8.3.4-11.4-.6-1.4-.9,0-.9,4.6-.1,5.2-.6,7.2-2.3,9.5-1.6,2-1.7,2.5-.5,1.5,1-.8,2.5-2.7,3.3-4.2h0ZM796.19,564.06c1.2-4.2,1.7-4.7,4.5-5,1.7-.2,10.7,1.7,20,4.2,17.7,4.8,19.2,5.1,19.2,3.7,0-.8-16.2-5.8-31.5-9.8l-7-1.9.1-7.9c.1-9.2,0-8.9-5,9.9-1.9,6.9-3,12.4-2.5,12.1.5-.4,1.5-2.7,2.2-5.3ZM516.79,540.26c-3.2-5.2-11-14.7-18.1-22-5.9-6-6.1-6.1-9.6-5.2-2.1.5-4.7,1.2-5.9,1.5-1.3.3-2.3.8-2.3,1,0,1,9.1,13.3,14.5,19.7,3,3.5,8.3,8.3,11.7,10.6l6.2,4.1,2.9-3,3-2.9-2.4-3.8h0ZM392.79,525.16c1.3-3.4,1.2-3.8-.9-5.5-2.8-2.3-3.8-2-6.4,1.6l-2.1,2.8,3,2.4c4,3.2,4.9,3,6.4-1.3ZM385.99,499.06c1.8-.9,4.3-3.1,5.5-4.9,1.2-1.8,4.1-4.7,6.5-6.5,2.9-2.2,5.4-5.3,7.2-9.1,1.6-3.2,2.7-6.1,2.5-6.3-.3-.2-1.8-.6-3.5-1-4.1-.8-6.6,1.9-19.1,21.2-8.3,12.8-9.6,15.2-6.4,12.1,2.1-2.1,5.4-4.6,7.3-5.5ZM456.29,462.16c.4-3.2,1.3-15.2,2.2-26.7.8-11.6,2-21.6,2.6-22.3.6-.8,3.3-1.3,7.1-1.3,6.8,0,5.3-1.2,23.1,18,9.7,10.4,9.6,9.9-1.1-7.5-5.3-8.5-5.9-14-1.7-15.5,6.2-2.4,11.6-1.3,26,5.6,7.7,3.6,13.5,6.1,12.9,5.6-.5-.6-8.8-6.2-18.2-12.7-16.5-11.1-17.3-11.8-17.3-14.9,0-6.1,1.5-6.6,23.1-7.2,11.8-.4,21.3-1.2,24.3-2,2.7-.8,6.6-1.4,8.5-1.4,2,0,4.3-.5,5.1-1s1.3-1,1-1-7.9-1.1-17-2.4c-9.1-1.4-21.9-3-28.5-3.6-6.6-.7-12.3-1.4-12.7-1.6-.5-.3-.8-2.9-.8-5.8,0-6.6.6-7.1,17-16.7,1.4-.8,4.2-2.9,6.4-4.6,2.2-1.8,4.4-3.3,4.8-3.3.5,0,3-1.4,5.6-3.2,5.1-3.5,4.1-5.2-1.2-1.9-1.8,1.2-4.5,2.1-5.9,2.1s-2.9.5-3.2,1c-.3.6-1.6,1-2.9,1-1.2,0-2.6.3-2.9.7-.6.6-4.8,2.2-15.5,5.9-2.4.8-6,1.4-8,1.2l-3.7-.3v-6.5c.1-6.1.7-7.9,10.4-29,5.7-12.4,10.6-23.2,10.9-24,.3-.8-6.3,7.5-14.7,18.5-20,26.2-19.3,25.5-25.3,25.5-4.1,0-5-.3-5.7-2.2-.5-1.3-2.1-11.5-3.5-22.8-3.8-28.8-5.6-41.3-6-41.7-.9-1-3.5,44.4-3.6,64,0,2.6-.2,2.7-5.3,2.7h-5.2l-9.1-9.2c-5-5.1-15.3-16.3-22.9-24.8-7.6-8.5-14.4-16.2-15.2-17-.8-.8.7,2.1,3.3,6.5,2.6,4.4,7,11.8,9.7,16.5s7.6,13,10.9,18.4c7.3,12,8.8,15.4,8.8,20.1v3.5h-5.9c-5,0-7.9-.9-18.7-5.6-16.1-7-23.2-9.8-21.9-8.6.6.5,8.2,6,17,12.2,20.7,14.6,20.5,14.4,20.5,19.6,0,3.1-.5,4.6-1.7,5.2-1.9,1-12.2,2.5-29.2,4.3-5.7.6-11.4,1.5-12.8,2-1.3.5-7.2.9-13.1,1-19.7.1-7.4,1.6,22.7,2.8,16.1.7,30.4,1.6,31.7,2.1,2,.8,2.4,1.6,2.4,4.9,0,4.9-3.3,9.2-19.5,25.1-13.7,13.5-20.5,21.3-17.8,20.4,1-.4,3.6-2.2,5.8-3.9,3.9-3.2,10.8-7.8,26.8-18.2,7.4-4.9,8.6-5.3,13.9-5.3h5.8v4c0,2.3-1.2,6.5-3,10.2-4.6,9.8-12.1,28-11.6,28.5.2.2,4.6-6,9.8-13.9s10.2-14.9,11-15.6c1.1-.8,3.7-1.2,7.5-1l5.8.3,2.1,21c2.8,28.1,3.4,32.6,4.4,32,.4-.3,1.1-3.1,1.4-6.2h0ZM316.89,454.26c-5.6-3.1-9-7.9-9-12.6,0-3.6-.1-3.7-5.2-4.8-8.9-1.8-22.5-9.2-31.1-16.7-10.2-8.9-14-14.9-14.7-22.7l-.5-5.9-4.5-1.3c-2.5-.7-4.8-1-5.1-.6-.4.4-1.6,4.8-2.8,9.7-1.2,5-2.6,10.4-3.1,12-1.4,4.7-2.8,17-3.5,29.5-.4,6.3-.9,12.5-1.2,13.8l-.5,2.2h85.7l-4.5-2.6h0ZM374.89,448.26c-.8-.1-3.7-.6-6.4-.9-3.5-.5-5.7-1.5-7.8-3.5-2.5-2.6-2.8-3.5-2.8-9.7,0-8.9,1.1-10.6,17.8-28.2,12.3-13,13.1-14.1,10.5-14.1-11.2,0-46.4-2.2-49-3.1-5.4-1.7-7.3-5.1-7.3-13.1,0-6.5.2-7.2,3.1-9.9,1.7-1.6,3.7-2.9,4.5-2.9,2,0,1.9-.4-3-6.7-5.9-7.9-7.1-10.4-13.7-29.1-10.1-28.8-13.1-32.1-47.9-52.4-5.2-3.1-11.6-7.5-14.2-9.8-4.2-3.6-4.8-4.7-4.8-8.1v-3.9h4.6c3.7,0,8,1.7,22.8,8.8,10,4.9,21.1,10.8,24.7,13.2,14.2,9.6,22.1,21.4,27.9,41.5,6,20.9,9.8,28.4,19.4,38.3,4.8,5,7.3,6,10.9,4.6,1.3-.4.9-1.4-1.8-4.9-3-4-7.5-13.9-7.5-16.6,0-.5-1-2.9-2.1-5.2-1.9-3.7-2.1-5.2-1.5-13.2,1.4-19.7-6.9-35.3-25.1-47.7-10.5-7-23.3-12.5-63.8-27.4-27.6-10.2-42.9-16.5-61-25.3-22.1-10.7-38.3-20.4-55.4-33.2-4.2-3.2-4.3-3.2-3.7-.8,1.3,4.5,7.1,15.3,11.2,20.9,13.7,18.5,31.9,31.6,69.6,49.9,30.6,14.9,42.8,24,42.8,31.8,0,3.1-.2,3.3-3.5,3.3-2,0-6.4-1.5-10.3-3.4-9.4-4.7-27.7-12.3-47.7-19.9-24.5-9.3-38.7-15.7-52.3-23.7l-5.3-3.1,2.3,4.2c3.1,5.7,17.6,20.8,25.7,26.9,13.4,10.2,30.9,17.6,71.1,30,15,4.7,24.7,9.2,32.7,15.2,4.8,3.7,5.3,4.4,5.3,7.9s-.2,3.9-2.8,3.9c-1.6,0-6.6-1.4-11.3-3.1-11.9-4.3-28.8-9.1-47.4-13.3-8.8-2-21.1-5.2-27.3-7l-11.2-3.4,3,3.8c7.4,9.3,25,21,39.7,26.2,9.4,3.4,23.8,6.9,42.7,10.3,12,2.2,23.1,5.8,28.9,9.4,4.1,2.7,4.7,3.5,4.7,6.6s-.2,3.5-3,3.5c-1.7,0-12.6-1.3-24.3-2.9-11.6-1.7-27.3-3.7-34.7-4.6-7.4-.8-14.6-1.8-16-2.1-1.9-.4-.8,1.1,5,6.8,16.2,15.9,34.7,21.6,76.4,23.4l14.6.7v3.7c0,4.1.3,3.9-8.9,7.1-6.3,2.2-26.8,5.9-33.2,5.9l-4.4.1,7.1,6.8c8.5,8.2,20.1,14.3,31.4,16.7,5.9,1.2,10.6,1.4,21.8.9l14.2-.7v3.5c0,4.4-3.6,7.7-13.4,12.2l-6.9,3.2,4.9,1.7c10.8,3.5,17.1,4.4,29.9,4.4,7.2,0,12.3-.2,11.5-.4h0ZM569.69,447.37c4.2-.9,9.4-2.3,11.5-3.2l3.8-1.7-6-2.7c-3.4-1.5-8.1-4.2-10.6-6-4-2.9-4.5-3.7-4.5-7.2v-3.9l8.3.8c14.8,1.6,27.3.9,36.2-2,9.8-3.1,15.2-6.5,24.1-14.9l6.8-6.4-10-.6c-11.2-.8-33.4-4-40.9-6-4.7-1.2-5-1.5-5.3-4.8-.2-2.1.3-4,1.1-4.7s8.8-1.5,19.3-2.1c20.2-1.1,35-4.3,46.1-9.9,3.4-1.8,6.8-3.2,7.5-3.2.8,0,5.4-4,10.3-9,8.3-8.4,8.7-8.9,5.5-8-1.9.5-13.3,2.1-25.4,3.5-12,1.4-27,3.4-33.4,4.5-6.3,1.1-13,2-14.8,2-3.2,0-3.4-.2-3.4-3.3,0-7.6,12.3-13,42-18.2,14.9-2.6,23-4.5,30-7.1,3.6-1.3,7.4-2.4,8.4-2.4s3.1-1,4.6-2.2c1.6-1.3,5.6-3.9,9-5.8,5.8-3.2,23-18.2,23-20,0-.4-3.9.5-8.7,2-4.9,1.5-14,3.9-20.3,5.4-32,7.6-41.1,10-51.2,13.7-6,2.1-12.5,3.9-14.4,3.9-3.2,0-3.4-.2-3.4-3.5,0-2.8.8-4,4.3-6.9,9.1-7.6,22.7-13.4,48.2-20.6,31.8-9.1,53-20.5,69.7-37.7,5.6-5.8,14.2-17.3,13.4-18-.2-.2-3.5,1.5-7.2,3.8-10.9,6.7-30.3,15.2-59.9,26.3-10.7,4-19.4,7.7-37.8,16-3.2,1.4-7.3,2.6-9.2,2.6-3.4,0-3.5-.1-3.5-3.9,0-3.5.6-4.5,5.8-9,3.1-2.8,6.2-5.1,6.8-5.1s1.8-.7,2.5-1.6c1.4-1.7,3.7-3,20-11,25.4-12.6,34.2-17.2,38.6-20.2,1.6-1.1,3.9-2.6,5.3-3.6,10.3-6.7,13.6-9.4,21.6-17.7,11.7-12.1,17.1-20.2,21-31.2,1.3-3.8,1.3-3.9-.5-2.6-22.2,16.1-33.7,23.1-55.6,33.9-13.5,6.7-49.9,21.9-58.5,24.5-6.9,2.1-51.8,19.9-58.2,23.1-19.1,9.5-30,21.6-34.2,38.1-2.3,8.8-2.1,11.1.9,11.9,4.5,1.1,6.5,4.9,6.5,12.4,0,8-1.3,10.1-10.1,16.1-3.2,2.2-5.9,4.3-5.9,4.7s-1.8,3-3.9,5.9l-3.9,5.1,3.6.7c3.6.7,3.9.5,10.3-6.3,8.3-8.8,12.8-17.4,17.3-32.9,7.9-27,13-35.1,28.5-45.6,11.4-7.7,47.4-24.7,52.2-24.7,3.8,0,3.9.1,3.9,3.3,0,6-6.7,11.5-32,26.3-10.1,5.9-15.4,9.8-21.1,15.4-8.5,8.5-10.3,11.8-17.2,31.7-5.3,15.3-8.3,21.5-14.3,29.9l-4.3,6.1,3.9,1.2c2.1.6,5.2,2.7,6.9,4.6,2.7,3.1,3.1,4.3,3.1,9.4,0,6.5-2.2,10.5-6.9,12.3-2.2.8-32.4,3.7-40,3.8-1.9,0,0,1.7,8.2,7.6,14.2,10,14.7,10.8,14.7,20.4,0,6.8-.3,7.9-2.4,9.9-1.6,1.5-4.2,2.5-7.1,2.9-3.7.4-4.5.8-4,2.1.4.9,1.2,3,1.7,4.6.6,1.7,1.4,3.4,1.8,3.9,2.5,2.7,20.3,3.4,31.8,1.1h0ZM387.49,445.37c1.6-.4,3.8-1,4.9-1.5,1.1-.4,2.7-1,3.6-1.3.8-.3,2.5-2.8,3.7-5.6,1.2-3,1.6-4.9.9-4.5-.7.4-4.8,3.3-9.2,6.4-4.4,3.1-8.9,6.2-10,6.9-2.2,1.3-2.3,1.3,6.1-.4h0ZM513.09,322.87c2.3-1.1,5.2-2,6.5-2s2.3-.4,2.3-.9,1.8-1.1,3.9-1.5c4.4-.7,4.6-1,5.6-10.1.9-8.5,3.3-17.8,6.3-24.3,2.5-5.6,3.8-7.4,10.3-14.6l3.7-4-4.5-2.8c-2.4-1.5-4.7-2.8-5.1-2.8-.5,0-5-2.2-10.2-5-5.6-3-10.7-5-12.6-5-1.8,0-3.4-.6-3.7-1.4-.6-1.6-13.3-5.9-24.2-8.3-3.8-.8-10.1-2.1-14-2.9-11.2-2.4-39.9-2.9-52.8-1-15.9,2.4-24.9,4.5-26.7,6.1-.9.8-3.3,1.5-5.4,1.5s-7.2,1.4-11.6,3.1c-8,3.1-32.7,15.2-34.5,17-.6.6.4,2.3,2.6,4.7,5.7,6,9.4,11.3,11.9,17.2,2.5,6,4.9,15.7,5,20.5,0,2.8.5,3.2,6.3,5.1,3.4,1.2,7.8,2.8,9.7,3.6,3.4,1.5,3.6,1.5,5.7-1.2l2.2-2.7-6.6-10.9c-10.9-18.1-13.3-23.7-13.3-31,0-5.6.4-6.8,2.8-9.5s3.7-3.3,8.4-3.7c6.9-.5,9.5.8,17,8.5,4.7,4.8,22.3,24.4,33,36.7l2.7,3.1.2-3.5c.6-15,2.7-39,3.8-44.3.6-2.6,2.1-5.2,4.1-6.9,2.6-2.4,3.9-2.8,9.4-2.8s6.9.4,9.5,2.6c3.7,3.1,4.4,5.4,7.2,24.9,1.9,13.2,2.4,15.2,4.5,16.8,3.2,2.5,3.5,8.7.3,8.7-2,0-2.2,2.1-.3,2.7.6.2,7-7.5,14.3-17.2,16.7-22,19.4-24.5,26-24.5s11.9,2.4,13.2,5.8c1.8,4.7.6,14.1-2.8,21.7-3.9,8.5-13,28.8-14.9,33.3-1.7,3.8-.9,4,4.8,1.2h0ZM333.89,254.37c.7-.8,2.1-1.5,3.1-1.5s3.3-1.3,5.1-2.9c3.9-3.4,7.1-5.1,9.3-5.1.9,0,3.6-1.3,6-3,2.4-1.6,5-3,5.7-3,.8,0,1.8-.4,2.3-.9,1.2-1,15.7-6.1,17.7-6.1.7,0,2.7-.7,4.3-1.7,2-1,6.7-1.8,14.2-2.2,6.9-.4,11.7-1.1,12.5-1.8.6-.7,2.1-1.3,3.3-1.3s2.6-.5,3.2-1.1c.6-.6,9.1-1.3,21.9-1.6,24-.6,37.9.8,57.9,5.8,19.8,5,35.7,11.6,56.8,23.6,7.4,4.2,8,4.3,11.5,3.2,5.3-1.7,5.5-1.8,7.2-2.8.8-.5,4.6-2.4,8.3-4.1l6.8-3.1-2.3-1.8c-5.2-4-17.9-12.1-27.3-17.4-24.5-13.8-51.1-23-79.5-27.7-22.2-3.6-64.3-2.1-82.5,3-2.2.6-5.1,1.4-6.5,1.7-4.5.9-16.5,4.5-18.2,5.4-1,.5-2.4.9-3.1.9-.8,0-3.5,1.1-6.1,2.5s-5.2,2.5-5.8,2.5c-1.5,0-27.3,12.6-32.1,15.8-2.3,1.5-4.7,2.9-5.2,3.2-2.1,1-15.4,10.5-15.5,11,0,.4,23.6,11.6,25.1,11.9.4.1,1.2-.6,1.9-1.4h0ZM628.89,229.76c11.8-4.5,21.9-8.5,22.3-8.9.5-.4-2.9-3.9-7.5-7.7-44.3-36.9-92.3-59.3-149.3-69.5-11.7-2.1-16-2.3-44-2.3-20.9,0-33.6.4-39,1.3-4.4.7-10.9,1.8-14.5,2.4-16.5,2.6-47.5,11.6-62,18-13.5,5.9-30.9,14.5-33,16.2-.8.7-2.8,1.8-4.4,2.5-9.5,4-54.1,36.9-52.4,38.6.4.4,18.8,7.6,26.8,10.5,3.6,1.3,7,2.7,7.5,3.1.6.4,3.2,1.3,5.8,1.9l4.8,1,7.7-5.8c10.6-7.9,28.6-19.2,30.6-19.2.4,0,2.3-1.1,4.4-2.3,4.5-2.9,28-12.7,38.3-16.1,26.2-8.5,61.8-12.5,93.4-10.6,21,1.3,21.8,1.4,47,7.2,8.8,2,36.5,11.5,37.5,12.8.3.3,2.5,1.4,5,2.4,6.1,2.4,20.2,10,27,14.5,3,2.1,6.2,4,7,4.4.8.3,5.3,3.5,10,7.1,4.7,3.5,8.7,6.5,9,6.5.2.1,10.1-3.5,22-8ZM663.89,209.37c-2.4-2.5-4.6-4.5-4.9-4.5s1.5,2,3.9,4.5,4.6,4.5,4.9,4.5-1.5-2-3.9-4.5ZM245.89,198.07c0-.6-11.2,9.2-13.5,11.9-1.1,1.3,1.5-.8,5.8-4.6,4.2-3.7,7.7-7,7.7-7.3h0ZM643.99,192.87c-4.2-3.6-17.6-13.1-21.6-15.4-3.6-2.1-3-1.6,12.5,9.8,11.9,8.7,14.9,10.6,9.1,5.6h0ZM265.69,183.47c.3-.5-1.6.6-4.2,2.4-2.6,1.9-5,3.9-5.4,4.4-.3.5,1.6-.6,4.2-2.4,2.6-1.9,5-3.9,5.4-4.4ZM291.29,167.87c17.5-10,49.1-24,54.3-24,1.3,0,3.4-.6,4.6-1.4,5.3-3.5,41.7-11.5,62.2-13.8,13.7-1.5,57.3-1.5,72,0,6.1.6,17.9,2.5,26.4,4.2,38.5,7.8,67.5,19.1,104.4,40.7.4.2.7.2.7-.1,0-1.2-20.7-12.6-36-19.8-24.6-11.6-53-20.4-81-25.2-56.5-9.7-111.6-3.6-167.3,18.5-18.9,7.5-53.7,26.2-62.4,33.6-1.5,1.3.4.4,4.2-2,3.9-2.5,11.9-7.3,17.9-10.7h0ZM661.89,170.17c-5.2-3.9-6-4.9-6-7.8,0-4.3,1.3-5.1,8.6-5.8,7.1-.6,11.4-2.5,16.7-7.6,5-4.7,7.7-10.1,8.4-16.6,1.1-10.9-7.6-22.8-21.9-30-11.9-5.9-21.7-4-30.9,6.3-5.5,6.1-7.4,11.9-6.5,19.4.4,2.9.9,7.9,1.3,11.1l.5,5.7h-3.6c-2.3,0-5.1-1-7.6-2.6-2.4-1.6-4.6-2.4-5.7-2-1.2.5.6,2.2,7.8,7l9.4,6.3,2-3c1.7-2.7,1.9-4.5,1.6-14.3-.3-13.6,1.5-18.8,8.9-25.8,5.4-5.1,8.8-6,18.4-5.4,14.1.9,21,11.9,17.6,28.1-2.1,10.5-11.7,20.7-20.8,22.2-5.1.9-7.6,2.3-10.1,5.6l-2.1,2.8,8.6,6.6c6.8,5.1,9,6.3,10.1,5.4,1.1-.9.1-2-4.7-5.6h0ZM238.09,168.87c-.9-1.4-5.6-8.7-10.5-16.2-7.8-12-8.8-14.1-8.5-17.5.5-6.3,3.8-5.9,28.3,4.2,11.5,4.8,21.6,9,22.4,9.5,1,.5,2.8-.1,5.3-1.7l3.8-2.6-2.2-3.6c-2-3.4-30.8-48.2-31.4-49-.2-.2-1.6.5-3.2,1.5l-3,1.9,10.9,16.5c8.9,13.5,10.9,17.2,10.9,20.3,0,3.6-.1,3.7-3.6,3.7-2.3,0-12.2-3.5-26.9-9.6l-23.3-9.6-3.6,2.4c-2,1.3-3.6,2.6-3.6,3.1,0,.8,31.4,48.2,33.7,50.9,1.4,1.6,1.7,1.6,3.8,0,2.2-1.6,2.3-1.8.7-4.2h0ZM303.89,132.37c1.7-.9,3-1.7,3-1.9s-1.6-4.6-3.5-9.7c-1.9-5.2-3.5-10.9-3.5-12.7,0-3,.5-3.5,4.5-5.3,2.5-1.1,6.7-2.3,9.3-2.6l4.8-.5,10.2,9.1c5.6,5,10.8,9.1,11.4,9.1.7-.1,2.3-.6,3.5-1.3,2-1.1,1.6-1.6-8.3-10.1-9.3-7.8-10.4-9.2-10.4-12.1,0-1.8,1-4.4,2.2-6,3.8-4.9,4.8-9.2,3.1-14.3-3.2-9.2-12-14.5-20.6-12.3-4.6,1.1-29.2,10.5-31.5,12-1.1.6-.7,2.3,1.7,8.2,2.8,6.9,9.5,23.9,17.1,43.7,1.7,4.5,3.4,8.2,3.6,8.2.3,0,1.8-.7,3.4-1.5h0ZM599.19,132.67c.2-.7-.9-1.8-2.5-2.5-2.7-1.2-2.8-1.4-2.8-8.7,0-6.9.3-8,4.7-16.3,2.5-4.8,6.3-11.5,8.4-14.8,2.7-4.2,3.4-6.2,2.6-6.7-2-1.2-2.4-1-4.7,2.7-1.9,3-2.7,3.5-6.1,3.5-2.8,0-3.9-.4-3.9-1.5,0-3.2-4.2-9.6-8.1-12.5-14.2-10.2-33,2.1-36.5,24-1.4,8.7,5.8,18.7,15.7,22,4.8,1.6,5.7,1.7,8.7.4,1.9-.8,5.2-1.4,7.2-1.4,3.5,0,3.9.3,5,3.6.8,2.2,2.7,4.6,5.2,6.5,4.4,3.1,6.4,3.6,7.1,1.7h0ZM402.89,103.37c13.6-6.9,19.9-22.3,15.4-37.6-3.7-12.5-9-19-19.2-23.7-6.8-3.1-13.1-2.7-21.8,1.2-17.3,7.8-23.1,27.1-13.8,45.8,8.3,16.6,23.8,22.2,39.4,14.3h0ZM486.69,99.26c.3-2-.3-2.1-8.9-2.7-5.1-.4-12.5-.7-16.6-.7h-7.5l.8-30,.7-30h-9.1l-.6,21.8c-.4,11.9-.7,26.4-.9,32.2l-.2,10.5,11.5.6c6.3.3,15.8.5,21,.5,8.9-.1,9.5-.2,9.8-2.2h0ZM531.19,80.86c.6-2.1,1.4-1.9-14.8-4.4-4.9-.7-9.3-1.2-9.7-.9-.5.2-.8,1.2-.8,2.2,0,1.6,1.5,2.1,9.3,3.4,13.4,2.1,15.4,2.1,16-.3Z"/>
      <path d="M528.39,862.66c-.3-.7-2-8.2-4-16.7-3.6-15.9-4.3-23.5-2.4-24.7.6-.3,3.9-.9,7.3-1.1,10.7-.9,15.1,3,18.1,15.9,3,13.5,1.4,23.1-4.5,26-4.1,2.1-13.8,2.4-14.5.6h0Z"/>
      <path d="M442.39,394.16c-4.8-1.3-8.8-8.2-8.3-14.6l.3-4.2,5.2-.3c4.4-.3,5.3,0,6.3,1.8,1.1,2,1.3,2,2.9.6,2.1-1.9,12.1-2.2,13.9-.4.9.9,1.5.9,2.4,0,.7-.7,3.6-1.2,6.5-1.2h5.3v4c0,4.8-3.1,11.5-6.1,13-1.1.6-5.3,1.1-9.2,1-4,0-9.4.1-12.2.4-2.7.2-5.9.2-7-.1h0Z"/>
      <path d="M428.59,370.16c-1-1-.8-10.8.2-13.6,2-5.2,14.8-7.9,18.4-3.9,4,4.4,6.1,14.4,3.5,17-1.5,1.5-9,1.6-10.5.1-.8-.8-1.3-.8-1.7,0-.8,1.2-8.8,1.5-9.9.4Z"/>
      <path d="M458.09,368.66c-1.7-1.7-1.5-11.3.3-14.7,1.8-3.6,3.2-4.1,10.5-4.1,3.9,0,6.4.5,7.4,1.5,2.2,2.2,3.8,8.3,3.4,13l-.3,4-5.8.1c-3.1.1-6,.4-6.4.8-1.1,1.1-7.8.7-9.1-.6h0Z"/>
      <path d="M291.49,90.66c-2-5.2-3.6-11.1-3.6-13.4,0-3.9.1-4,5.3-5.8,2.8-1,6.6-2.4,8.4-3.2,3.6-1.6,12.6-1.9,15.4-.4,3.1,1.7,4.9,6.4,4.9,13.2,0,4.3-.5,7.1-1.7,8.7-2.1,3-17.3,10.1-21.7,10.1-3.4,0-3.5-.1-7-9.2h0Z"/>
      <path d="M563.29,118.36c-3.5-2.4-4.6-6.7-4.3-16.3.4-7.8.8-9.7,3.9-15.7,4.2-8.1,7.8-10.5,15.7-10.5,10.7,0,13.3,3.3,13.3,16.8,0,11.1-1.9,17.1-7.5,22.8l-4.2,4.4h-7.4c-4.9,0-8.2-.5-9.5-1.5Z"/>
      <path d="M379.89,99.96c-7.8-4.1-11-13-11-30.5,0-10.7.3-12.6,2.3-16,3.8-6.8,6.6-8.1,16.7-8.1,7.4,0,9.3.3,11.7,2.1,6.3,4.7,9.9,13.4,11,26.4,1.1,13.9-2.6,23.4-10.4,26.6-4.8,2.1-16.1,1.8-20.3-.5Z"/>
    </g>
    <g>
      <path class="cls-1" d="M420.39,918.86c-3.8-.4-12.4-1.3-19-1.9-6.6-.6-12.7-1.4-13.7-1.7-.9-.2-5.6-1.1-10.5-1.9-13.4-2.2-22.7-4.2-35.3-7.4-6.3-1.7-13.5-3.6-16-4.2-2.5-.6-5.3-1.5-6.2-2-1-.5-3.4-1.3-5.5-1.8-5-1.2-15.3-4.8-21.8-7.7-1.6-.7-5.5-2.2-8.5-3.4-10.6-4.2-41-18.9-47.5-23-1.6-1-4.8-2.8-7-4-4-2.2-6.4-3.7-22.5-14.3-7.1-4.6-20.5-14.1-24.5-17.4-.5-.5-5-3.9-10-7.8-10.2-7.8-12.6-10-30.8-27.5-20.8-20.1-45.7-49.1-58.3-68-1.7-2.5-4.6-6.8-6.5-9.5-4-5.9-4.4-6.6-10.3-16.5-7.9-13.4-8.5-14.4-13.1-23.5-2.5-4.9-5-9.7-5.5-10.5-1.5-2.7-8.1-17-13-28.5-1.6-3.6-6.4-16.1-9.5-24.5-1.6-4.2-4.6-14.2-6.9-22.5-.9-3.3-2.3-8.2-3.1-11-.7-2.7-2.2-8.8-3.3-13.5-1.1-4.7-2.7-11.5-3.6-15.2-.9-3.6-1.6-7.8-1.6-9.3s-.7-6.4-1.5-10.9c-5.1-28.5-6.9-75.6-4-104.1.8-8.8,2-20.5,2.6-26,.5-5.5,1.4-11.6,1.9-13.5.6-1.9,1-5,1-6.8s.7-6.3,1.6-10c.8-3.7,2.4-10.5,3.5-15.2,4.3-18.6,10.7-41.1,13.5-47.7.8-1.7,1.4-3.6,1.4-4.2s.6-2.5,1.4-4.3c.8-1.8,2.2-5.3,3.2-7.8s2.6-6.4,3.6-8.7c1-2.3,1.8-4.5,1.8-4.9,0-1.6,17.9-37.8,22.7-45.9,1.6-2.7,3.2-5.7,3.6-6.5.4-.8,1.6-2.8,2.7-4.5,1.1-1.6,2.5-4.1,3.2-5.5,1.3-2.5,12.5-19.5,15.7-23.6.9-1.2,2.3-3.2,3.1-4.4,2-3,12.1-16.4,12.9-17,.3-.3,2.2-2.5,4.2-5s4.7-5.6,5.9-7c10-11.4,14.4-16.1,25.5-27,14.7-14.4,13.8-13.5,23.5-22,4.1-3.5,8.4-7.3,9.4-8.3,2.6-2.6,35.5-26.8,39.8-29.2.9-.5,7.3-4.3,14-8.3,6.8-4,13-7.7,13.8-8.2s5-2.7,9.2-4.9c4.2-2.2,8.5-4.4,9.5-5,2.8-1.5,14.3-6.6,19.3-8.6,2.5-1,6.4-2.7,8.7-3.7,2.3-1,4.8-1.8,5.6-1.8.7,0,1.7-.3,2-.6,1.1-1.1,12.1-5.4,13.7-5.4.9,0,2-.4,2.5-.8.6-.5,4.4-1.9,8.5-3.1,4.1-1.2,8.9-2.7,10.5-3.2,1.7-.6,4.1-1.3,5.5-1.5,1.4-.3,4.8-1.1,7.5-1.9,16.9-4.6,47.2-9.5,74.5-12.1,33.9-3.1,86.2-.3,114.6,6.2,3.3.8,6.9,1.4,8,1.4,2.1,0,13.2,2.4,20.8,4.6,2.6.8,5.7,1.4,6.8,1.4s2.9.5,4.1,1.2c1.2.6,3.8,1.5,5.7,1.9,3.8.8,6.2,1.6,21.8,7.3,11,4,15.9,5.9,17.7,6.6,1.1.5,4.9,2.1,8.5,3.5,7.4,3,35,16.7,39.5,19.5,1.7,1.1,3.9,2.4,5.1,2.9,5.3,2.3,23.3,13.9,32.6,20.8,3.1,2.4,5.9,4.3,6.3,4.3.8,0,16.4,12.4,29.5,23.4,18.3,15.3,41.6,39,53.5,54.1,2.1,2.8,4.4,5.5,5,6,1.2,1.1,14.1,17.9,16.5,21.5.8,1.2,2.2,3.2,3.1,4.4,2.8,3.6,14.9,21.6,14.9,22.1,0,.3,1.5,2.8,3.3,5.8,1.7,2.9,3.7,6.1,4.4,7.2s3.3,6.1,5.8,11c2.6,5,5,9.7,5.5,10.5,1.9,3.2,11,22.9,11,23.8,0,.6.7,2.3,1.5,3.9,2.5,4.8,5.5,12.1,5.5,13.5,0,.8.5,1.9,1.1,2.5s1.4,2.6,1.9,4.4c.5,1.9,1.9,6.6,3.3,10.4,1.3,3.9,3.5,10.4,4.7,14.5s2.8,9.1,3.5,11,1.8,6,2.4,9c.7,3,1.9,8.7,2.7,12.5,5.8,26.4,8.9,45.5,10.6,65.5,2.5,28.1,1.2,82.8-2.4,101-.6,3-1.4,8.4-1.9,12-.7,5.9-2.5,14.9-6.5,32.5-.7,3.3-1.9,8.5-2.5,11.5s-1.7,7.1-2.4,9-2.3,6.9-3.5,11-2.7,9.1-3.4,11c-2.4,6.5-3.8,10.5-4.8,14-.5,1.9-1.4,3.9-1.9,4.4-.5.6-.9,1.6-.9,2.4,0,1.3-1,3.7-8.4,20.5-3.9,8.6-13.9,28.9-17,34.2-1.9,3.3-4.4,7.8-5.6,10-1.2,2.2-3.6,6.3-5.4,9-10.6,16.3-12.8,19.5-16.3,24.2-2.1,2.8-4.5,6.1-5.3,7.3-1.2,1.9-6.8,9.2-10.2,13.5-26,32.6-60.2,65.3-90.8,87-3.9,2.8-7.7,5.5-8.3,6-1.7,1.4-14.3,9.7-20,13.1-2.7,1.6-6.1,3.7-7.5,4.6-1.5,1-3.6,2.2-4.7,2.8-1.1.6-3.6,2-5.5,3.1-4.5,2.8-20.3,10.7-30.5,15.4-4.4,2-9.6,4.4-11.5,5.2-1.9.9-4.8,2.2-6.5,2.8-1.6.7-4.6,1.9-6.5,2.8-1.9.8-4.4,1.8-5.5,2-1.1.3-5.1,1.7-9,3.1-25.5,9.1-60.7,17.2-89.5,20.6-4.7.6-11.9,1.5-16,2.1-8.8,1.3-54.4,1.9-64.5.9h0ZM496.89,901.46c70.8-9.8,130.3-32.3,187-70.7,96.9-65.6,164.7-166.7,188-280.3,1.6-7.9,2.5-13,5.6-32.4,3.2-19.9,4.4-70.2,2.4-94.7-6.5-76.8-32-151.1-73.1-212.6-58.4-87.5-143.2-150.5-241-178.9-48.1-14-103.7-19.1-156.2-14.5-84.9,7.5-161,38.6-229.7,93.9-15.8,12.7-48.4,45.1-62.2,61.9C56.29,247.36,20.19,340.96,16.39,436.36c-.4,7.7-.8,15.4-.9,17.2-.6,5.7,1.3,41.5,2.9,55.8,10.7,94.4,48.3,178,112.5,250,49.6,55.6,116.4,100,185.5,123,30.3,10.1,66.6,17.8,97,20.5,15.7,1.3,70,.4,83.5-1.4h0Z"/>
      <path class="cls-1" d="M412.39,798.26c-25.5-2.9-58.2-10.8-80.5-19.4-14.6-5.7-38.9-17.6-52.2-25.6-21.6-13-51.3-36-50.2-38.8.9-2.4,5.4-4.9,6.7-3.8.7.5,6.2,4.9,12.2,9.8,23.2,18.6,51.8,35.4,80,47.2,15.4,6.4,21.6,8.5,40.3,13.3,55.9,14.4,116.6,13.3,170.7-3.1,101.5-30.7,184.6-113.3,218-217,11.2-34.8,15.7-64.1,15.6-102.5-.1-54.7-9.8-97.2-33.5-147-6.2-13-6.7-14.4-6.1-18.7.6-4.2.4-5-1.9-7.3-2.5-2.4-2.5-2.5-.5-3.6,2.7-1.4,3-1,13.4,19.3,26.1,51.1,37.6,99.2,37.6,158.3,0,34-3.5,59.9-12.5,92.6-12.1,43.9-37.2,91.4-67.5,127.9-14.1,17-42.4,43.4-61.9,57.8-19.4,14.3-49.2,30.8-73,40.4-19.8,7.9-47.2,15.2-71.7,19-17.5,2.7-63.7,3.4-83,1.2h0Z"/>
      <path class="cls-1" d="M454.59,784.16c-1.4-.4-1.7-1.1-1.3-2.6.3-1.2.6-8.6.6-16.4v-14.1l5.8-3.4c3.1-1.8,6-3.4,6.5-3.6.4-.2.7,8.6.7,19.6,0,19.9,0,20-2.2,20.6-2.6.6-7.4.6-10.1-.1Z"/>
      <path class="cls-1" d="M426.79,767.66c.1-9,.5-16.5.6-16.7.2-.1,1,.1,1.7.5,1.7,1.1,1.6,1.1,12.1,1.2,8,.2,8.7.4,8.7,2.2,0,1.7-.7,2-5,2h-5v27h-13.5l.4-16.2Z"/>
      <path class="cls-1" d="M402.89,781.36c-.8-.2-3.2-.6-5.2-1l-3.8-.6v-7.8c0-7.4-.2-8-2.6-9.6-1.4-.9-3.2-3.2-4-5.1-1.4-3.4-1.4-3.6,1.2-5.7,6.5-5.2,14.3-8.7,19.7-8.7,7.6,0,8.6,1.1,7.8,8.9-.6,5.7-1.1,6.7-4.5,9.9l-3.9,3.5.6,8.3q.5,9.1-5.3,7.9h0Z"/>
      <path class="cls-1" d="M358.39,770.96l-5-1.8-.3-6.5-.3-6.6,3.8.8c2.1.4,5.5,1.1,7.6,1.4,2.3.4,3.7,1.2,3.7,2.1,0,.8-.5,1.5-1.1,1.5-.8,0-1,1.7-.5,5.5.7,6.4.4,6.5-7.9,3.6h0Z"/>
      <path class="cls-1" d="M484.19,767.36c-5-2.1-7.3-6.8-7.3-14.5,0-7,2.1-11.9,5.9-14,1.2-.6,2.1-2,2.1-3,0-2,1.5-2.7,2.4-1.1.3.4,2.4,1.1,4.8,1.5,6.1,1,10.8,3.5,12.9,7,2.2,3.6,2.6,14.9.7,19.1-2.5,5.6-14,8.3-21.5,5h0Z"/>
      <path class="cls-1" d="M528.09,751.56l-7.2-7.2v-7.8c0-6.5.3-7.9,1.8-8.4.9-.3,2.6-1.4,3.7-2.4,1.2-1,3.5-2.1,5.1-2.5l3-.6v6.6q-.1,6.5,4.9,11.6l4.9,5h25.3c13.9,0,25.3.4,25.3.8,0,.5-1.2,1.4-2.7,2.2-3.6,1.6-8.6,4.2-14.7,7.4-4.8,2.5-5.4,2.6-23.5,2.6h-18.7l-7.2-7.3h0Z"/>
      <path class="cls-1" d="M382.89,737.26c10-10.4,13.8-15.7,18.5-25.7,3.4-7.1,8.3-24.7,10.5-37.9,1.7-9.6,3.5-8.8,2.7,1-1.3,16.8-6.3,34.4-12.8,45.5-5.3,9-15.5,19.6-22.1,23.2l-5.3,2.8,8.5-8.9h0Z"/>
      <path class="cls-1" d="M552.39,732.66c-3.9-3-7-10.8-4.4-10.8.6,0,3.3-2,6-4.4s8-6,11.8-7.9l7-3.6,2.5,2.6c1.4,1.4,2.6,3,2.6,3.4,0,.5,5.6.9,12.4.9h12.3l43.2-43.9,43.1-43.9v-22.5c0-17.9-.3-22.8-1.4-23.4-.7-.4-2.7-2-4.4-3.5l-3.2-2.6,4-8.5c2.2-4.7,4-9,4-9.6s.4-1.1.9-1.1,1.1-1,1.3-2.2c.3-2.1.8-2.3,7.1-2.3,6.7,0,6.9.1,10.4,3.8q3.5,3.9,3.1,11.9c-.3,8-.3,8.1-4.6,11.8l-4.2,3.8v26.8l-.1,26.9-45.2,45.7-45.2,45.8-16.2.2-16.1.3-4,4.3-3.9,4.2h-8c-6.7,0-8.5-.4-10.8-2.2h0Z"/>
      <path class="cls-1" d="M313.29,723.46l-4.4-4.6h-51.9l-3.6-3.1c-4.2-3.7-4.3-4.4-.7-5.7,2.5-1,2.4-1-1.8-1.1-3.3-.1-4.1-.4-3-1.1.9-.6,13.9-1,31.7-1h30.1l2.1-3.3c2.7-4.4,5.8-5.7,13.7-5.7,11.9,0,15.9,4.3,15.2,16.2-.3,6.1-.7,7.2-3.6,10.1-3,3-3.8,3.2-11.3,3.6l-8,.3-4.5-4.6h0Z"/>
      <path class="cls-1" d="M213.79,701.16c-37.2-38.1-65.6-84.6-82.4-134.8-7.4-22.2-13-47.5-15.6-70.5-1.8-15.7-1.5-61.5.5-78.5,4.6-38.5,15.9-77,32.2-109.7,5.8-11.8,14.7-27.8,15.5-27.8.3,0,1.4.7,2.5,1.5,1.3,1,1.5,1.7.8,2.2-2,1.5-3.4,5.1-3.4,9.2,0,3-1.6,7.3-6,16.1-17.5,34.8-28.4,72.6-33.2,114.5-.7,6.1-1.2,22-1.3,35.5,0,31.7,1.7,46.8,8.6,76.5,12.5,53.5,41.3,108.2,78.4,148.9,18.1,20,16.8,18.1,15,21.6-.8,1.6-2.1,3-2.8,3s-4.7-3.5-8.8-7.7h0Z"/>
      <path class="cls-1" d="M469.89,702.86c-6.6-9.7-8.5-16.1-10-34-1.3-14.3-3.1-22.3-6.6-29.3-2.8-5.4-2.5-7,.7-4.1,6,5.4,9.2,15.8,10.4,32.9.9,13.1,2.8,22,6.9,32.2,1.9,4.6,3.3,8.3,3,8.3-.2,0-2.1-2.7-4.4-6h0Z"/>
      <path class="cls-1" d="M577.69,697.36c.5-2.8,6.4-8.5,8.8-8.5.8,0,2-1.1,2.6-2.5.9-2.1,1.8-2.5,5.2-2.5,4,0,4.6-.5,33.8-29.7l29.8-29.8v-8.1c0-7.8.2-8.4,3.5-13,2-2.7,4.5-6.4,5.6-8.1,1.2-1.8,2.5-3.3,3-3.3s.9,9.1.9,20.8v20.7l-31.8,31.8-31.7,31.7h-12.3c-10,0-12.4.3-12.8,1.5-.4.8-1.6,1.5-2.9,1.5-1.8,0-2.1-.4-1.7-2.5h0Z"/>
      <path class="cls-1" d="M223.49,688.66c-5.6-6.1-6.4-7.4-4.9-8,1.4-.5,1.2-.7-.9-.7-3.4-.1-4.4-1.7-1.5-2.5,3.5-.9,26.7-.7,26.7.3,0,.4-1.3,2.5-3,4.6-1.6,2.1-3,4.2-3,4.6,0,1.2-5.3,8.8-6.2,8.9-.3,0-3.6-3.3-7.2-7.2h0Z"/>
      <path class="cls-1" d="M549.89,683.96c-4.7-4.9-11.2-10.9-14.5-13.4-7.7-5.7-9.2-7.4-7.7-8.9.8-.8,2.4-.1,5.9,2.4,2.6,1.9,6.9,4.6,9.5,6.1,3.2,1.9,6.2,5,10.1,10.4,2.9,4.3,6.1,8.4,7,9.2,2.2,1.8,2.2,3.1,0,3.1-1,0-5.6-4-10.3-8.9h0Z"/>
      <path class="cls-1" d="M254.59,685.16c2.1-2.6,4.5-5.5,5.3-6.5,1.3-1.6,3.7-1.8,27.5-1.8s26.3.2,28.1,1.8c1,1,2.4,1.9,2.9,2.1,2.6.7,14.5,7.5,14.5,8.2,0,.5-18.2.9-41.1.9h-41l3.8-4.7h0Z"/>
      <path class="cls-1" d="M576.19,674.36c-7.2-2-12.2-4.7-17.9-9.6-2.7-2.3-8.5-6.6-12.9-9.5-7.3-4.8-12-9.4-9.5-9.4,1.4,0,18.6,11.6,24.5,16.5,7.9,6.5,10.5,8.1,17.8,10.4,9.8,3.3,8.4,4.4-2,1.6h0Z"/>
      <path class="cls-1" d="M272.59,663.16c.3-1,2.2-3.5,4.1-5.5l3.5-3.7,3.1,2.2c8,5.6,8,6.7.1,6.7-3,0-5.7.5-6,1-.3.6-1.7,1-3,1-1.9,0-2.3-.4-1.8-1.7h0Z"/>
      <path class="cls-1" d="M199.29,660.66c-1.8-2-4.6-5.7-6.3-8.1l-3.1-4.6v-88.7l4.8-4.7c3.3-3.2,5.6-4.7,7.5-4.7,1.8,0,2.5.4,2.1,1.4-.3.8.3,1.5,1.4,1.8,1.2.3,2.5,2.1,3.2,4.3,1.2,3.6,1.1,3.8-2.4,7.4l-3.6,3.7-.2,47.8-.3,47.9-3.1-3.5h0Z"/>
      <path class="cls-1" d="M236.79,663.06c-12.7-.2-14.9-.5-16.3-2.1-1.5-1.6-1.6-5.6-1.4-38.6.2-28.4.6-36.9,1.6-37.3.7-.2,1.2.5,1.2,1.7,0,1.3.5,1.9,1.4,1.5s2.6,1.5,5,5.6l3.6,6.1v49.9h29.2l-2.7,4.8c-5.1,8.8-5,8.7-21.6,8.4h0Z"/>
      <path class="cls-1" d="M251.29,640.96c-5.4-3.3-6.4-5.6-6.4-15v-8.5l4.8,5.4c2.6,3,6.9,7.9,9.6,10.7,2.7,2.9,4.5,5.3,4,5.3s-.1.5.9,1.1c3.2,1.9,1.7,2.9-4,2.9-3.9,0-6.8-.6-8.9-1.9Z"/>
      <path class="cls-1" d="M551.89,639.46c0-1.3.7-2.9,1.5-3.6,1.2-1,1.5-3.8,1.5-12.9v-11.6l3.7-2c2-1.1,5-3.1,6.5-4.3l2.8-2.4v29.7l-6.3,4c-8.9,5.7-9.7,5.9-9.7,3.1Z"/>
      <path class="cls-1" d="M431.99,635.46c-1.2-4.9-1.4-49.3-.2-53.6.6-2,.9-2.2,1.6-1,.6.9.8,8.9.5,19.5-.2,9.9-.4,22.8-.4,28.8-.1,5.9-.1,10.7-.2,10.7s-.7-2-1.3-4.4h0Z"/>
      <path class="cls-1" d="M712.89,588.26v-47.6l-7.1-7.4-7.2-7.3,1.1-4.3c.6-2.4,1.4-6,1.7-8,.3-2.1,1.1-3.8,1.8-3.8s6,4.9,11.9,10.8l10.6,10.7.6,6.5c.4,3.6.5,22.5.4,42l-.4,35.5-3.9,6.9c-2.2,3.7-4.9,8.4-5.9,10.2-1.1,1.9-2.3,3.4-2.8,3.4-.4,0-.8-21.4-.8-47.6h0Z"/>
      <path class="cls-1" d="M510.29,615.06c-4.4-4.2-11-10.3-14.7-13.5-7-6.1-12.4-12.4-11.4-13.3.3-.3,7,4.8,14.9,11.4,11.1,9.2,15,13.1,17.2,17.1,1.5,2.9,2.6,5.4,2.4,5.6s-4-3.1-8.4-7.3Z"/>
      <path class="cls-1" d="M167.69,610.66c-2.3-4.6-4.8-9.6-5.5-11.2-.9-2-1.3-9.4-1.3-26.4v-23.5l14.2-14.4c7.8-7.9,15-14.3,16-14.3s1.8-.4,1.8-1c0-.5.7-1,1.5-1,1.8,0,1.8.5.5,3.1-.7,1.3-.7,1.9,0,1.9.5,0,1-.6,1.1-1.2,0-.7.5-.2,1,1.1.5,1.4.7,3.1.4,3.8-.2.8-.1,1.1.4.8s1.1.5,1.3,1.7c.3,1.8-2.6,5.3-12.4,15.7l-12.8,13.4v29.9c0,19-.4,29.8-1,29.8-.5,0-2.9-3.7-5.2-8.2h0Z"/>
      <path class="cls-1" d="M371.89,607.36c1.6-2,8-5.9,8.6-5.2.8.7-6.5,6.7-8.3,6.7-1.2,0-1.3-.3-.3-1.5h0Z"/>
      <path class="cls-1" d="M542.39,597.96c-4.1-1.8-10.9-7-10.2-7.7.2-.3,3.4.7,7.1,2.1,8,3,11.7,3.1,17.5.5,5.8-2.7,6.9-2.5,4,.6-2.7,3-9.3,6.4-12.4,6.4-1.1,0-3.8-.9-6-1.9h0Z"/>
      <path class="cls-1" d="M275.89,581.86c0-.6-.9-2-2-3.2s-2.6-3.4-3.2-5c-.7-1.5-1.6-2.8-2-2.8-1.4,0-3.9-6-3.1-7.4.4-.8,9.7-10.4,20.5-21.5l19.7-20.1h29l4.1,3.8c3.9,3.6,4.1,4,2.9,6.5l-1.2,2.7h-25.2l-18.3,18.3-18.2,18.2v5.8c0,4.4-.3,5.7-1.5,5.7-.8,0-1.5-.5-1.5-1h0Z"/>
      <path class="cls-1" d="M524.39,567.86c-.3-.5.7-1.2,2.2-1.6,14.8-3.2,21.1-6.5,29.4-15.1,7.5-7.8,10.6-8.2,5.5-.8-5.5,8.2-13.5,15.1-19.6,16.9-5.9,1.8-16.5,2.1-17.5.6h0Z"/>
      <path class="cls-1" d="M421.69,560.86c-.5-1.4-1.4-7.1-2.3-12.7-1.7-12.1-4.1-19.4-9.5-28.7-2.2-3.8-3.9-7.3-3.8-7.8.4-1,23.9,12.4,29.3,16.7,4,3.2,12.2,13.6,9.4,12-.8-.5-4.3-3.2-7.9-6-8.4-6.7-13.2-9.5-16-9.5-2.5,0-2.5-.2.5,13.9,1.6,7.3,1.8,27.4.3,22.1Z"/>
      <path class="cls-1" d="M256.69,550.66c-.8-1.3-1.9-3.4-2.3-4.8-.4-1.4-1.4-3.4-2.1-4.5-1.3-1.8.3-3.7,23.8-27.2l25.3-25.3h35.9c34.1,0,35.8.1,34.4,1.8-.8.9-2.7,3.8-4.2,6.5l-2.7,4.7h-54.4l-25.5,25.5c-14,14-25.8,25.5-26.1,25.5-.4,0-1.3-1-2.1-2.2h0Z"/>
      <path class="cls-1" d="M351.89,534.06c0-1.4,2.3-3.2,4.2-3.2.9,0,2.2.9,2.8,2,1,1.8.8,2-3,2-2.2,0-4-.4-4-.8Z"/>
      <path class="cls-1" d="M385.49,531.06c-2.6-2-4.7-4.1-4.6-4.6s-.3-1.2-.9-1.6c-.7-.3-.9-1.4-.5-2.3.5-1.4,2.2-1.7,10.5-1.7,9.1,0,11.7.8,8.8,2.6-.6.3-2.2,3.1-3.5,6-1.3,3-2.9,5.4-3.6,5.3-.7,0-3.5-1.7-6.2-3.7h0Z"/>
      <path class="cls-1" d="M580.79,529.26c-2.5-4.7-10.7-11.2-17.9-14.1-3.8-1.5-7-3.2-7-3.8,0-2.2,4.1-7.5,7.1-9.1,2.4-1.2,5-1.5,10.2-1.2,6.8.4,7.1.5,10.7,4.6l3.8,4.2h33.6c18.5,0,33.6.4,33.6.8,0,.5-.3,1.2-.7,1.5-.3.4-.7,1.7-.9,3-.2,2.9-1.2,6.8-1.8,7.4-.2.3-15,.4-32.8.3l-32.4-.1-1.2,2.6c-.7,1.4-1.2,3.5-1.2,4.5,0,2.8-1.4,2.5-3.1-.6h0Z"/>
      <path class="cls-1" d="M136.89,526.46c0-.2-.5-2.8-1-5.7-2.5-12.8-2.8-11.7,4.5-18.9,6.5-6.4,6.5-6.5,6.5-12.1,0-10.1,6.2-15.9,17-15.9,10.2,0,15,5.2,15,16s-5,16-15.2,16h-5.6l-9.1,9.5c-5,5.3-9.1,10-9.1,10.5,0,.6-.7,1-1.5,1s-1.5-.2-1.5-.4h0ZM164.49,490.76c1-1.7-1.3-3.6-2.7-2.2-1.2,1.2-.4,3.3,1.1,3.3.5,0,1.2-.5,1.6-1.1Z"/>
      <path class="cls-1" d="M258.29,504.46c-1.7-.8-4.1-2.7-5.3-4.2-2-2.6-3.1-3-8.9-3.4-5.7-.4-6.7-.8-7-2.5-.1-1.1-.5-3.9-.8-6.2l-.6-4.3h7.4c7.1,0,7.4-.1,9.1-3,2.5-4.2,6.6-6,13.7-6,11.1,0,15,4.1,15,15.4,0,7.8-1.1,10.4-5.4,13.4-3.8,2.6-12.2,3-17.2.8h0Z"/>
      <path class="cls-1" d="M528.89,492.86c-.1-10.6-2.1-34-3.5-39.5-.9-3.3-3.6-9.5-6-13.7-2.5-4.3-4.5-8.2-4.5-8.8,0-4.4,8.5,7.4,11.8,16.4,3.2,8.6,6.5,36.3,5.2,43.4-1.1,6.4-3,7.7-3,2.2Z"/>
      <path class="cls-1" d="M548.69,483.16c-10.1-9.9-10.9-11-10.6-14,.2-1.8,0-3.3-.5-3.3-.4,0-.7-1.5-.5-3.2q.3-3.3,5.8-3.2h5.5l10.4,10.7,10.5,10.7h91.7l-.6,3.8c-.4,2-.9,4.9-1.1,6.5l-.6,2.7h-98.9l-11.1-10.7h0Z"/>
      <path class="cls-1" d="M705.69,489.66c.5-8,1.3-10.8,2.7-10.8.8,0,1.5.5,1.5,1,0,.6,9.5,1,26.5,1h26.5v-11h-55.1l.3-4.2.3-4.3,5-.6,5-.6-5.2-.1c-2.9-.1-5.3-.6-5.3-1.1,0-1.5,9.9-2.1,34.9-2.1h24.3l-.6,13.8c-.3,7.5-.9,15.8-1.2,18.5l-.6,4.7h-59.4l.4-4.2h0Z"/>
      <path class="cls-1" d="M130.49,483.66c-.3-1.3-.6-7.9-.6-14.8v-12.5l28.7.3c15.8.2,28.8.4,28.9.5s.3,3.1.6,6.7l.4,6.5-27.3-.3-27.3-.4v8.1c0,6.2-.3,8.1-1.4,8.1-.7,0-1.6-1-2-2.2h0Z"/>
      <path class="cls-1" d="M233.79,469.46c-.1-.9-.1-2.5-.1-3.6,0-5.4-4.2-5,56.5-5.3l56.2-.2-56.7-.3c-38.5-.1-56.8-.5-56.8-1.2,0-1,74-.8,126.5.2,7.7.2,18.2-.1,23.3-.6l9.3-.9-3.8,6.1-3.8,6.1-73,.1c-40.1,0-74,.3-75.2.6-1.7.5-2.3.2-2.4-1h0Z"/>
      <path class="cls-1" d="M588.29,464.76c-3-2.9-5.4-5.9-5.4-6.8,0-1,2.4-2.7,6.5-4.5,4-1.8,8-4.5,10.1-6.9,3.1-3.4,3.6-4.5,3.1-7.6l-.4-3.6,10.1-2.8c9.4-2.6,11.4-2.8,29.3-2.7h19.1l.6,3.8c.2,2,.5,5.2.5,7v3.2h-39.5l-1.7,2.9c-2.4,4.1-7.3,6.1-15.3,6.1-6.6,0-6.7,0-4.9,2,1.7,1.9,3.1,2,32.2,2,16.6,0,30.3.4,30.3.8,0,.5-.3,1.2-.7,1.6-.4.3-.6,2.9-.4,5.6l.2,5h-68.2l-5.5-5.1h0Z"/>
      <path class="cls-1" d="M762.89,448.36v-4.5h-55.1l.2-5c.2-2.7,0-5.3-.4-5.6-.4-.4-.7-1.1-.7-1.6,0-.4,13.1-.7,29.2-.6l29.1.3.4,2.5c.1,1.4.6,6.2.9,10.8.7,7.9.6,8.2-1.5,8.2-1.8,0-2.1-.6-2.1-4.5h0Z"/>
      <path class="cls-1" d="M309.39,448.86c-1.7-1.9-3.1-2-38.7-2h-36.9l.3-5.8.2-5.9,36.1-.6c19.8-.3,37.3-.3,38.9,0,2.6.5,2.8.8,2.2,4.3-.6,3.8,1.2,7.4,5.4,10.7,1.2,1,.9,1.2-2.1,1.3-2.4,0-4.2-.7-5.4-2Z"/>
      <path class="cls-1" d="M173.39,447.16l-12.1-.4-13.4-13.4c-7.4-7.4-14-13.5-14.7-13.5-1.7,0-1.6-3.3.3-11.9,1-4.6,2.1-7.1,3-7.1.7,0,8.6,7.4,17.5,16.5l16.2,16.5h18.7l-.1,4.3c-.1,6.2-.9,9.7-2.2,9.5-.7-.1-6.6-.4-13.2-.5h0Z"/>
      <path class="cls-1" d="M627.89,427.36c0-.8.6-1.5,1.3-1.5s4.8-3.6,9.2-8c5.4-5.4,8.8-8,10.5-8.1,1.8-.1,2-.3.7-.6-3.1-.8.1-3.3,4.3-3.3h3.8l1.1,6.3c.6,3.5,1.1,6.7,1.1,7,0,.4-2.6.4-5.8.1l-5.9-.7-2.2,3.7c-2.9,4.7-6.7,6.6-13.1,6.6-3.8,0-5-.4-5-1.5h0Z"/>
      <path class="cls-1" d="M760.69,421.66l-.3-2.3h-54.5l-.6-3.3c-.4-1.8-.4-4.1-.1-5.2.3-1.1.1-2.3-.4-2.6-3.3-2,1.6-2.4,28.5-2.4h29.3l.7,4.5c.3,2.5.9,6.5,1.2,9,.6,4.1.5,4.5-1.4,4.5-1.4,0-2.2-.7-2.4-2.2Z"/>
      <path class="cls-1" d="M270.89,420.36c-2.3-2.5-2.6-2.5-18.7-2.5h-16.3l.5-3.2c.3-1.8,1.1-4.7,1.7-6.4,1-2.9,1.5-3.2,7.1-3.8,3.3-.3,8.6-.6,11.7-.6,5.2,0,5.9.3,7.5,2.8,1,1.5,4.9,5.7,8.9,9.4l7.1,6.7-3.6.1c-2.5,0-4.2-.7-5.9-2.5h0Z"/>
      <path class="cls-1" d="M175.39,416.46c-1.7-.7-8.8-7.3-15.9-14.7l-12.8-13.4.4-20,.4-20,3.3-7c1.7-3.8,4-8.7,4.9-10.7.9-2.1,2.3-3.8,3-3.8.9,0,1.2,5.9,1.2,26v25.9l5.9,6.8c3.2,3.8,8.8,9.6,12.4,13.1,5.5,5.2,7.1,6.2,10.1,6.2q3.8,0,2.1,9.3l-.7,3.7h-5.7c-3.1-.1-7-.7-8.6-1.4h0Z"/>
      <path class="cls-1" d="M702.29,398.66c-.4-.6-.2-1.4.4-1.6.8-.2.7-.8-.3-1.9-2.8-2.7-.1-4.2,8.3-4.6l7.7-.3-8.7-.2c-4.8-.1-8.9-.6-9.2-1-.5-.9,16.4-2.2,28.4-2.2h6.5l8-8c4.4-4.4,8.7-8,9.6-8,1.1,0,2.1,1.8,3.2,6,1,3.3,1.7,6.8,1.7,7.8,0,.9-3,4.8-6.8,8.5l-6.8,6.7h-20.6c-14.9,0-20.9-.3-21.4-1.2h0Z"/>
      <path class="cls-1" d="M715.39,377.86c-8.8-5.8-8.8-21.8,0-27.6,2.5-1.6,2.5-1.7,2.5-16.4,0-9.2-.4-15-1-15.2s1.1-2.9,3.7-6c4.9-5.9,8.5-7.4,9.7-4.2.3.9.6,10.2.6,20.8v19.2l3,1.7c4.2,2.5,6,6.6,6,13.7,0,11-4.8,16-15.5,16-4.3,0-6.9-.6-9-2Z"/>
      <path class="cls-1" d="M178.09,371.86c-4.6-2.8-6.5-7.9-6-15.9.4-6.1.6-6.6,4.6-10l4.2-3.7v-11.7c0-7.4.4-11.7,1-11.7s1.3.7,1.6,1.5c.4.8,1.1,1.5,1.6,1.5,1.7,0,11.2,8.4,9.9,8.8-.6.2-1.1,2.8-1.1,6.3,0,5.5.2,5.9,3.1,7.4,3.9,2.1,5.9,6.9,5.9,14.3,0,6.6-2.6,11.7-7,13.9-4,2-14,1.6-17.8-.7h0Z"/>
      <path class="cls-1" d="M382.09,356.56c-4.2-3-4.3-3.2-2-3.8,2-.6,1.9-.7-.9-.8-3-.1-5.9-2.1-3.1-2.1.7,0,2.2-.3,3.4-.6,1.3-.3,2.8.1,3.8,1.1.9.9,1.6,1.3,1.6,1,0-.8,7.1,4.4,8.2,5.9,2.6,3.9-5.6,3.4-11-.7Z"/>
      <path class="cls-1" d="M691.19,357.46c.3-.8.1-1.7-.6-1.9-.9-.3-.8-1.2.2-3.8.8-1.9,1.5-5.7,1.6-8.6.1-4.1.6-5.8,2.6-7.8,2.3-2.4,14.2-11.5,14.6-11.1.1.1-.1,4.6-.4,10.1l-.6,9.9-6.6,7.2c-4.4,4.8-7.4,7.2-9,7.3-1.6.1-2.2-.3-1.8-1.3h0Z"/>
      <path class="cls-1" d="M392.09,323.86l-4.3-2,2.2-3c2.6-3.4,5.8-3.9,8.1-1.2,2.5,2.9,2.8,4.9.9,6.6-2.1,1.9-1.5,1.9-6.9-.4h0Z"/>
      <path class="cls-1" d="M515.89,310.26v-15.6l3.6-7.9c5.7-12.9,5.5-18.6-.8-21.2l-3.2-1.3.3-10c.1-5.4.5-10.1.8-10.4.2-.3,1,.3,1.8,1.3.7,1,1.9,1.5,2.8,1.1,2.3-.9,8.9,2.6,8.3,4.3-.4.8-.6,17.2-.6,36.4,0,33.7-.1,34.9-1.9,34.9-1.1,0-2.1.5-2.3,1-.2.6-1.6,1.2-3.1,1.4-1.5.1-3,.6-3.4.9-1.9,2-2.3-.7-2.3-14.9h0Z"/>
      <path class="cls-1" d="M384.29,319.36c-.7-1.8.3-3.5,2.1-3.5.7,0,1.5-.7,1.9-1.5.3-.8,1.7-1.5,3.1-1.5h2.6l-3.3,4c-3.5,4.2-5.5,5-6.4,2.5h0Z"/>
      <path class="cls-1" d="M468.99,307.86c-1.3-6-1.4-13-.3-13,.4,0,1.2.3,1.8.8.5.4-.2-.3-1.6-1.5l-2.5-2.3h2.6c7.1,0,12.6,6.8,9.4,11.7-.9,1.2-2,2.3-2.6,2.3s-.8.4-.5.8c.3.5-.8,2.1-2.3,3.6l-2.9,2.8-1.1-5.2h0Z"/>
      <path class="cls-1" d="M424.09,295.56l-8.2-8.2v-53.3l5.7-.7c3.1-.4,6.2-.9,7-1.2,1.1-.4,1.3,3.8,1.3,23.4v23.9l4.1,3.9c3.2,3.2,4,4.6,3.6,6.8-.2,1.5,0,2.7.5,2.7s.7.4.4.9-.7,2.9-.7,5.5c-.2,4.2-.4,4.6-2.8,4.6-2,0-4.8-2.1-10.9-8.3h0Z"/>
      <path class="cls-1" d="M361.19,299.66c-.3-.6-.7-2.1-.9-3.3-.1-1.3-1.2-4.4-2.5-7.1-1.2-2.7-2.3-5.2-2.3-5.6-.1-.4-.7-1.3-1.3-1.9-2.4-2.4-1.4-5.8,2.7-9.9l4-4v-8.2l.1-8.3,4.7-2.2c9.4-4.4,8.6-5.4,7.9,10.1l-.5,13.8,4.4,8.8c2.9,5.7,4.2,9.4,3.8,10.6-1.2,3.4-4.6,6.4-7.8,6.8-8,1.2-11.6,1.3-12.3.4h0Z"/>
      <path class="cls-1" d="M484.89,263.86c0-27.4.1-29.2,1.8-28.5s3,1,9,2.1l3.2.6v38.5l-6.1,7.9c-3.3,4.4-6.5,8.1-7,8.2-.5.2-.9-11.4-.9-28.8h0Z"/>
      <path class="cls-1" d="M539.89,269.36c0-13.2.6-16.5,2.5-13.5.3.6,1.3,1,2.1,1s3.2,1.2,5.4,2.6c5.3,3.5,5.6,7.9.8,13.3-1.8,2-4.6,5.3-6.2,7.4-1.6,2-3.3,3.7-3.8,3.7-.4,0-.8-6.5-.8-14.5Z"/>
      <path class="cls-1" d="M395.69,267.96l-5.8-5.8v-11c0-8.9.3-11.2,1.5-11.7.8-.3,1.5,0,1.5.6s.8.4,1.8-.5,3.3-2,5-2.3l3.2-.6v18.6c0,10.2-.3,18.6-.7,18.6-.5,0-3.4-2.7-6.5-5.9h0Z"/>
      <path class="cls-1" d="M286.89,240.56c-1.4-.5-3.3-1.2-4.4-1.4-1-.2-3.3-1-5.1-1.8-3.1-1.5-3.1-1.7-2.7-6.8.4-4.9.2-5.4-2.2-6.5-4.2-1.9-6.6-6.8-6.6-13.5,0-11.9,3.7-15.7,15.5-15.7,7.2,0,7.7.2,11.2,3.4,3.4,3.1,3.7,3.9,4.1,9.8.5,7.8-1.5,13.1-5.8,15.6-2.7,1.5-3,2.2-3,6.8,0,2.7.5,5.5,1.1,6.1s.9,2,.7,3.1c-.3,1.7-.7,1.8-2.8.9h0Z"/>
      <path class="cls-1" d="M304.89,204.06c0-14.7-.3-27.6-.6-28.8-.4-1.7.2-2.4,3.3-3.9,2.1-.9,5.1-2.3,6.7-3.1s3.1-1.4,3.3-1.4c.1,0,.3,12.5.2,27.8v27.7l-6.5,4.2-6.4,4.2v-26.7h0Z"/>
      <path class="cls-1" d="M587.39,228.86c-.3-.5-2-1.6-3.8-2.5s-4.3-2.5-5.6-3.6l-2.5-2,7.2-7.2,7.1-7.1,7.3-.7c4-.4,15.4-.8,25.4-.8l18.1-.1,7.9,6.8,7.9,6.7-28.1.3-28.1.2-6.1,5.5c-3.3,3.1-6.3,5.1-6.7,4.5h0Z"/>
      <path class="cls-1" d="M659.29,211.66c-21.6-19.5-57.1-42.6-82.9-54.1-29.3-13-65.4-22.9-95-25.9-14.7-1.5-52.3-1.5-66,0-20.4,2.3-56.9,10.3-62.2,13.8-1.2.8-3.3,1.4-4.6,1.4-1.2,0-7.4,2.1-13.7,4.6-34.5,13.7-66.4,33.2-93.6,56.9-6,5.2-11.7,9.5-12.7,9.5s-3.2-.7-5-1.6l-3.1-1.7,5.4-4.9c27.4-24.6,50.6-40.7,79.7-55.2,61-30.4,129.2-40.5,196.3-29,55.3,9.5,105.7,32.5,150.5,68.7,13,10.5,23.3,20.2,22.4,21.1-.3.3-2.1,1.2-4.1,2l-3.6,1.5-7.8-7.1h0Z"/>
      <path class="cls-1" d="M329.69,188.46c.4-30.3-.3-27.7,8.5-30.8l4.7-1.7v26.5c0,24.3-.1,26.5-1.7,27.1-1,.4-3.4,1.6-5.3,2.8-7,4.3-6.5,6.1-6.2-23.9h0Z"/>
      <path class="cls-1" d="M550.39,208.16c-2.2-.9-4.2-1.9-4.5-2.3-.3-.4-1.3-.9-2.2-1.3-3.2-1.2-1.9-3.2,7.1-11.5l8.9-8.2h52.6l7.8,5.1c12.8,8.4,14.2,7.9-20.9,7.9h-30.9l-5.9,6c-3.3,3.3-6.4,6-7,5.9-.5,0-2.8-.7-5-1.6h0Z"/>
      <path class="cls-1" d="M361.09,175.36l.3-25.8,4-1.2c2.3-.6,5.5-1.5,7.3-1.8,2.9-.6,3.2-.4,3.2,1.8,0,1.3-.4,2.7-1,3-.6.4-1,9.1-1,22.9v22.2l-5.2,1.9c-2.9,1-5.9,2-6.6,2.3-1,.3-1.2-4.9-1-25.3h0Z"/>
      <path class="cls-1" d="M389.69,167.66c.3-16.5.7-24.5,1.5-25,1.3-.8,10.7-2.2,11.2-1.6.2.2.5,11.1.6,24.3l.2,23.9-4.9,1.3c-9.7,2.5-8.9,4.6-8.6-22.9Z"/>
      <path class="cls-1" d="M490.69,189.16q-5.8-1.5-5.8-5.2c0-3.1-.5-4-2.6-4.9-3.3-1.6-5.4-6.8-5.4-13.9,0-10.1,5.1-15.3,15-15.3,6.4,0,11,2.1,13.4,6l1.7,3h55l6.7,2.9c11.6,4.9,18.2,8.3,18.2,9.2,0,.5-17.5.9-39.8.9h-39.9l-1.1,2.4c-.6,1.4-2.5,3.5-4.1,4.7-2.2,1.6-3.1,3.1-3.1,5.1,0,1.5.5,2.8,1,2.8.6,0,1,.9,1,2,0,2.4-2,2.5-10.2.3h0Z"/>
      <path class="cls-1" d="M416.59,187.06c-1.4-.3-1.7-1-1.2-2.9.5-2-.2-3.1-3.7-6.2-4-3.6-4.2-4.1-4.6-10.4-.5-7.8.8-11.7,5-15.2,2.5-2.2,3.9-2.5,10.1-2.5,8.3,0,11.3,1.2,14.4,5.9,1.8,2.7,2.3,4.8,2.3,10,0,7.4-2.2,12.3-6.5,14.3-1.9.8-2.3,1.6-1.9,3.4.5,2,.1,2.3-2.8,2.8-6,.9-9.3,1.2-11.1.8h0ZM424.39,165.96c.7-1.2-1.2-2.4-2.5-1.6-1.1.7-.4,2.5,1,2.5.5,0,1.1-.4,1.5-.9Z"/>
    </g>
    <g>
      <path class="cls-4" d="M369.69,514.76c-1-.5-1.8-1.6-1.8-2.4,0-2.6,26.6-42,29.3-43.4,1.9-1,4.4-1.2,9.4-.7,3.7.4,6.9.8,7,1,.2.2-1.6,4.3-3.9,9.2-3.3,6.9-5.3,9.6-8.7,12.2-2.4,1.8-5.3,4.7-6.5,6.5s-3.8,4-5.8,5-6.2,4.5-9.2,7.8c-5.6,6-6.8,6.6-9.8,4.8h0Z"/>
      <path class="cls-4" d="M451.99,472.46c-1-1.2-2.5-12.3-5.4-41.6l-1.2-12.5-2.8-.3c-1.6-.2-3.5.3-4.4,1s-6.7,9-12.9,18.3c-14.2,21.3-15.4,22.8-17.7,22-.9-.4-1.7-1.8-1.7-3.1,0-2.3,10.8-29.1,17-42.2,1.7-3.4,3-6.7,3-7.2,0-2.6-6.2-.6-13.7,4.3-16.5,10.7-22.9,15.1-26.9,18.3-2.3,1.9-4.6,3.4-5.1,3.4-.6,0-2.2.9-3.7,2.1-3.3,2.6-7,2.2-7.4-.9-.5-3.2,2.8-7.2,21.3-26.2,16-16.3,20.5-21.4,20.5-23.2,0-2-6.1-2.7-32.1-3.7-15.1-.6-29.6-1.4-32.2-1.7-5.5-.7-6.8-2.5-4.2-5.4,1.6-1.7,3.1-2,12.1-2,5.6,0,11.4-.4,12.7-.9,1.4-.5,7.1-1.4,12.8-2,28.3-3,32.5-4.1,30.3-7.8-.9-1.6-19.7-15.4-40.9-30.1-7.6-5.3-8.4-6.6-5.2-8.6,2.1-1.3,2.2-1.3,38.1,14.3,10.3,4.4,17.6,6.3,17.6,4.6s-3.6-8.5-10.2-19.5c-26.1-43.6-28.6-48.4-27.5-51.4.4-.9,1.3-1.6,2.2-1.6,1.7,0,2.1.5,24,25,20.4,22.9,31.6,34,34.1,34,2.1,0,2.2-.5,2.8-15.7,1.3-33.6,2.4-50.4,3.6-51.8.7-.8,2.1-1.5,3.1-1.5,2.2,0,3.2,3.5,4.8,16,3.9,30.7,6.5,48.8,7.2,50.8.5,1.2,1.7,2.2,2.8,2.2,2.4,0,6.1-4.4,27.1-32,9-11.8,16.8-21.8,17.4-22.2,2.2-1.5,4.1-.3,3.8,2.3-.1,1.5-6.1,15.5-13.3,31.3-13.2,29.1-15.3,35.1-12.8,36.1.8.3,4.6-.7,8.4-2.1,3.9-1.5,8-2.9,9.3-3.1,1.2-.3,2.5-.9,2.8-1.4s1.6-.9,2.9-.9,2.7-.4,3-1,1.8-1,3.3-1,3.7-.7,4.9-1.5c3.1-2.1,17.3-6.7,19-6.1.7.3,1.3,1.2,1.3,2,0,1.8-11.8,11.8-16.7,14.1-1.8.9-4.8,2.8-6.6,4.3s-4.3,3.3-5.7,4.1c-7.2,4.2-13.5,8.2-15.1,9.7-1.9,1.7-2.6,5.9-1.1,6.8.4.2,6.1.9,12.7,1.6,15.8,1.5,43.3,5.6,46.8,6.9,2.1.8,2.8,1.7,2.5,3.4-.3,1.9-1.1,2.3-5.8,3-3,.4-8.6,1.4-12.5,2.2-3.8.8-15.3,1.7-25.5,2-16.2.4-18.7.7-20.3,2.4-1.8,1.8-1.4,2.1,17,14.6,21.8,14.8,23.3,16,23.3,19.3,0,2.2-.3,2.4-3.5,1.9-1.9-.3-10.9-4-19.9-8.2-14.1-6.6-17.1-7.6-20-7.1-2,.4-3.8,1.1-4.1,1.7-.4.5,3.7,8.2,9,17,9.6,16.1,11,20,7.2,20.7-2,.4-5.9-3.4-24.3-23-8.5-9.2-10.5-10.8-13.1-10.8-1.7,0-3.5.6-4.1,1.3-.6.7-1.8,11-2.7,22.8-1.8,25.1-2.4,30.8-3.7,33.2-1,2-4.1,2.2-5.7.3h0ZM464.89,398.66c2.5-1,6.6-4,9.2-6.5,14.8-14.5,11.6-36.9-6.6-47.4-4.5-2.5-6.1-2.9-13.2-2.9s-8.9.4-13,2.6c-6.7,3.5-11,7.9-14.1,14.3-7,14.3-.6,31.2,14.9,39.2,8.1,4.1,14.4,4.3,22.8.7h0Z"/>
    </g>
    <g>
      <path class="cls-2" d="M351.39,689.46c-10-4.1-23.3-11-35.3-18-6.9-4.1-29.5-20.7-30.7-22.6-.4-.6,3-6,8-12.6,10.2-13.4,10.8-13.6,19.3-7,13.7,10.5,40.1,25.7,55,31.6,3.6,1.4,3.7,2.2,2.1,10.2-4,19.5-5.1,22.9-7.2,22.7-.7,0-5.7-1.9-11.2-4.3h0Z"/>
      <path class="cls-2" d="M577.69,665.66c-2.4-.6-7-3.9-12.8-9.1l-9.2-8.1,2.3-1.9c1.3-1,4.4-3,6.9-4.5,6.6-3.8,21.3-14.9,31-23.5,30.6-27.1,54.4-65.7,65.5-106.3,5.9-21.4,7-30.9,7-58.9-.1-27.4-1.4-38.6-7.4-60.9l-2.9-10.7,5.9-3.9c3.2-2.2,8.6-6.3,11.9-9.1,8.7-7.3,9.6-6.9,13.7,6.1,3.9,12.4,8.6,34.5,10.4,48.5,1.9,15,1.6,50.4-.5,65-4.8,33.7-16.2,66.3-33,94.9-15.2,25.9-40.7,54.3-65.6,73.4-14.1,10.9-15,11.2-23.2,9h0Z"/>
      <path class="cls-2" d="M262.29,627.16c-28.4-32.5-42.8-56.9-54.8-92.6-9.1-27-12.7-49.6-12.8-79.7-.2-29.8,3.4-53.3,12.3-80.7,4.5-13.9,5.3-14.6,11-8.7,1.8,2,7.1,6.3,11.7,9.6,4.5,3.3,8.2,6.4,8.2,6.9s-1.1,4.7-2.5,9.5c-6.5,22.3-9,44.2-8.2,69.4.9,27.1,4.6,46,13.3,69.5,10,26.6,25.9,52.9,44,72.4l5.4,5.8-9.6,13.7c-5.2,7.5-9.7,13.6-9.9,13.6s-3.9-3.9-8.1-8.7Z"/>
      <path class="cls-2" d="M484.09,555.06c-7.2-7-14.9-18.6-19.1-28.7-3.4-8.2-3.6-11-.8-11,1.2,0,2.7,2.2,5,7.5,3.8,8.6,9.2,17,17.7,27.1,9.6,11.4,7.4,15.2-2.8,5.1h0Z"/>
      <path class="cls-2" d="M503.99,548.76c-3.4-2.3-8.9-7.3-12.2-11.3-8-9.4-17.3-23.2-16.5-24.4.3-.5,2-1.2,3.8-1.6,1.8-.3,6.1-1.1,9.6-1.8l6.2-1.2,4.6,4.5c10.5,10.2,23.4,27.3,23.4,31.1,0,.9-1.4,3.3-3.1,5.3-4.3,4.9-7.8,4.7-15.8-.6Z"/>
      <path class="cls-2" d="M369.29,535.16c-1.2-4.1-4.1-8.8-6.4-10.4-1.6-1.2-5.4-2.1-10.5-2.6-6.1-.6-8-1.2-8-2.3,0-1.2,1.7-1.6,8-1.8,7.3-.2,8.4,0,12.2,2.4,2.5,1.7,4.8,4.3,5.9,6.5,1.9,4.3,4.3,6.8,8.2,8.6,2.5,1,2.2,1.1-3.1,1.2-4.7.1-5.9-.2-6.3-1.6h0Z"/>
      <path class="cls-2" d="M523.89,521.56c0-5.8-1.1-7.3-12.2-16-2.6-2.1-5.9-5.4-7.3-7.5-6.7-9.8-9.4-14.5-8.9-15.3,1.2-2.1,3.7-.6,7.9,4.9,2.4,3.1,8.6,9.5,13.6,14.1,10.1,9.4,12.9,13.1,12.9,17.6,0,3.5-2.4,7.5-4.6,7.5-1,0-1.4-1.3-1.4-5.3Z"/>
      <path class="cls-2" d="M446.59,403.86c-9.5-2.4-18.3-9.4-22.4-17.8-2.5-5-2.8-6.8-2.8-15.2s.3-10.2,2.7-15c3.2-6.5,7.5-10.9,14.2-14.4,4.4-2.3,6-2.6,16-2.6s11.4.2,16.2,2.9c6,3.5,10.9,8.8,13.8,15,2.8,6.3,2.9,20.4.2,27.6-2.6,6.6-10.3,14.7-16.7,17.4-5.7,2.5-15.7,3.5-21.2,2.1ZM453.59,389.76c2.6-1,3.9-1,7.2.1,5.3,1.7,8.3.4,11.1-4.9,1.1-2.2,2-4.5,2-5.1,0-2-4.9-1-6.8,1.5-1.1,1.4-2.4,2.5-2.9,2.5s-2-1.1-3.3-2.5c-1.4-1.4-3.5-2.5-5-2.5s-3.6,1.1-5,2.5c-3.1,3.3-5.2,3.2-7.3-.5-1.9-3.2-5.4-4-6.3-1.6-.6,1.5,2.7,8.6,4.8,10.3,2.9,2.4,5.9,2.4,11.5.2ZM436.49,365.36c.9-1.4,2.4-2.5,3.4-2.5.9,0,2.2,1.1,2.8,2.5,1.3,2.8,3.4,3.2,5.1,1.1,1.3-1.6-.7-7.6-3.6-10.8-3.4-3.8-11.2-.5-12.7,5.4-1.6,6.5,1.7,9.3,5,4.3ZM465.49,364.36c2-3,3.5-3.2,5.2-.5,1.4,2.3,5,2.7,5.8.5.7-1.8-1.3-8.1-3.3-10-1.5-1.5-5.9-2-8.8-.9-3.5,1.4-5.8,9.7-3.3,12.2,1.7,1.7,2.6,1.5,4.4-1.3h0Z"/>
      <path class="cls-2" d="M564.39,222.56c-24.6-13.8-51.2-23-79.5-27.7-23-3.7-70.1-2.1-88.5,3-2.2.6-5.1,1.4-6.5,1.7-4.5.9-16.5,4.5-18.2,5.4-1,.5-2.4.9-3.1.9-.8,0-3.5,1.1-6.1,2.5-2.6,1.4-5.2,2.5-5.8,2.5-1.7,0-27.9,12.9-32.6,16.1-2.4,1.6-4.5,2.9-4.8,2.9-.7,0-14.7,10.1-17.6,12.8l-2.7,2.5,11.7,5.2c6.4,2.8,13.6,6.2,15.9,7.4,4.5,2.3,8.2,2.1,10.4-.5.6-.8,2-1.4,3-1.4.22,0,.52-.07.85-.19,1.27-.81,2.56-1.6,3.85-2.38.13-.11.27-.22.39-.33,3.86-3.37,7.04-5.06,9.24-5.09,2.11-1.11,4.23-2.19,6.38-3.22,2.31-1.59,4.72-2.79,5.38-2.79.37,0,.78-.09,1.18-.23.11-.05.22-.09.33-.14.33-.15.65-.33.89-.53.85-.77,9.71-4,14.61-5.42,2.33-.79,4.68-1.54,7.04-2.24.08-.05.17-.09.25-.14.98-.49,2.62-.93,4.91-1.3,9.9-2.64,20.01-4.54,30.25-5.66.34-.04.65,0,.93.05,3.39-.41,9.29-.78,16-.98,26.9-.9,51.4,3,76.4,12.3,9.6,3.5,34.9,16.1,41.7,20.8,2.1,1.4,3.9,2.5,4.1,2.5.1,0,2-.9,4.2-2,2.2-1.1,4.8-2,5.8-2,1.1,0,2.5-.7,3.2-1.5s1.8-1.5,2.4-1.5c1.8,0,17.6-8,17.6-8.9,0-1.2-22.2-16.1-33.5-22.4Z"/>
    </g>
    <g>
      <path class="cls-3" d="M415.89,782.76c-4.7-.5-9.1-1.1-9.7-1.4-.9-.3-1.3-3.2-1.3-9.9v-9.4l4.1-4.1c3.9-3.8,4.1-4.3,3.7-9.1-.2-3.6.1-5,1-5,.7,0,4.7,1.8,8.8,4.1l7.4,4.1-.2,15.7-.3,15.6-2.5.1c-1.4.1-6.3-.2-11-.7h0Z"/>
      <path class="cls-3" d="M436.89,768.86v-15h4.5c2.4,0,6.7-.9,9.5-2s5.3-2,5.5-2c.3,0,.5,7.7.5,17v17h-20v-15Z"/>
      <path class="cls-3" d="M463.89,764.66v-19.4l6.3-4.6c8.3-6.1,10.2-7,14-6.6,2.8.3,3.2.7,3.5,3.5.2,2.4-.2,3.4-1.8,4.3-3.1,1.7-6,7-6,11s2.9,9.3,5.8,10.9c6,3.2,14.6,1,17-4.4,2.8-6.1.5-14.2-4.7-16.9-4.7-2.5-3.6-4.6,2.4-4.6,6.8,0,13.4-2.3,18.3-6.6,2.2-1.8,4.3-3.4,4.6-3.4s.6,3,.6,6.8v6.8l7.3,7.2,7.2,7.2h19c11.6,0,18.5.4,18,.9-2,1.9-23.5,10.1-38.2,14.5-23.5,7-41.6,10.4-64.5,12.2l-8.8.6v-19.4h0Z"/>
      <path class="cls-3" d="M382.89,777.36c-5.8-1.3-12.5-3-15-3.7l-4.5-1.4-.3-6.6-.3-6.5,7.4-.5c6-.4,8.6-1.1,13.1-3.6,3.1-1.8,5.8-3.2,6-3.2s.7,1.1,1,2.5c.3,1.3,2,3.5,3.6,4.7,3,2.1,3,2.3,3,11.5,0,10.9,1.3,10.2-14,6.8h0Z"/>
      <path class="cls-3" d="M341.89,765.36c-13.5-4.8-40.3-17.6-54-25.7-9.9-5.9-32-21.8-32-23,0-.4,12.6-.8,28-.8h28l4.5,4.6c4.3,4.6,4.5,4.7,9.5,4.2,16.1-1.6,15.6-23.8-.4-23.8-4.9,0-8.3,1.8-10.7,5.7l-2.1,3.3-28.1-.1c-33.1-.1-38.2-.6-42.1-3.6-3.2-2.6-3.9-.9,5.8-13.1l4.9-6.2h76.7l13.2,6.1c7.3,3.4,13.7,6.5,14.2,6.9.4.4-1.1,3.2-3.4,6.2-5.6,6.9-6.6,9.7-7.5,19.3-.4,5-1.6,10-3.1,13.4-1.3,2.9-2.4,6.2-2.4,7.3,0,2.8,5,7.1,10.4,9.2l4.6,1.8v6.4c0,3.5-.3,6.4-.7,6.3-.5,0-6.4-2-13.3-4.4h0Z"/>
      <path class="cls-3" d="M536.49,743.96c-4.8-4.9-4.9-5.1-5.4-12.5-.4-5.9-.2-7.7.9-8,.8-.2,5.3-.7,10.2-.9,7.2-.4,8.7-.2,8.7,1,0,.8,1.5,3,3.4,4.9,3,3,4,3.4,8.7,3.4s5.5-.3,9.1-4.2l4-4.3,16.1-.3,16.2-.2,45.2-45.8,45.2-45.7.1-26.9v-26.8l4.1-3.7c3.6-3.2,4.2-4.3,4.6-8.8.5-4.7.3-5.3-3-8.9-3.3-3.6-3.9-3.9-9.1-3.9-3.1,0-5.6,0-5.6-.1,0-.6,9.8-29.6,10.2-29.9.2-.3,3.9,3.1,8.1,7.4l7.7,7.9v95.9l-7.1,10.4c-26.8,39.1-65.7,75.6-105.2,98.4l-11.1,6.5h-51.2l-4.8-4.9h0Z"/>
      <path class="cls-3" d="M574.89,714.96c0-.5-1.3-2.2-2.9-3.7l-2.9-2.7,3-2.5c1.6-1.3,4-4.7,5.4-7.3l2.4-4.9h24.5l31.8-31.8,31.7-31.7v-36.6l3.5-5.4c1.9-3,4.8-8.2,6.5-11.5,1.7-3.5,3.7-6,4.6-6,.8,0,3.3,1.5,5.4,3.3l4,3.2v50.7l-43.1,43.9-43.2,43.9h-15.3c-8.7,0-15.4-.4-15.4-.9Z"/>
      <path class="cls-3" d="M226.89,691.36l-4.4-4.5h6.7c3.7,0,6.7.3,6.7.8,0,.4-1,2.4-2.3,4.5l-2.3,3.7-4.4-4.5h0Z"/>
      <path class="cls-3" d="M591.49,682.36c2-3.5,2.5-5.4,2.1-8-.5-3.3-.3-3.6,8.6-10.3,19-14.3,37.9-33,52.6-51.9l5.6-7.3.3,11.2.3,11.2-29.8,29.8-29.8,29.8h-12.6l2.7-4.5h0Z"/>
      <path class="cls-3" d="M207.49,670.66l-7.6-9.2v-96l4.1-4.2,4.2-4.3,6.8,13.7,6.9,13.7v36.1c0,33.7.1,36.2,1.8,37.7,1.6,1.4,4.3,1.7,16.1,1.7,7.9,0,14.1.4,13.9.8-.1.5-3,5-6.2,10l-6,9.2h-26.4l-7.6-9.2h0Z"/>
      <path class="cls-3" d="M259.89,679.16c0-.5,3.4-4.8,7.5-9.8l7.5-9,6.2-.5c6.1-.5,6.3-.4,12.3,3.9,3.3,2.5,10,7.1,15,10.3l8.9,5.8h-28.7c-15.8,0-28.7-.3-28.7-.7h0Z"/>
      <path class="cls-3" d="M360.49,650.56c-6.9-3.7-8.2-5.7-3.8-5.7,3.1,0,11.1,5.2,12,7.8.6,2-1.9,1.4-8.2-2.1Z"/>
      <path class="cls-3" d="M228.89,624.66c0-16.5.4-27.8.9-27.2.5.5,4.8,6,9.5,12.3,8.2,10.9,8.6,11.6,8.6,16.6,0,7.9,5.5,13.5,13.3,13.5,5.7,0,6.1,1.6,1.9,7.6l-3.7,5.4h-30.5v-28.2h0Z"/>
      <path class="cls-3" d="M185.79,641.36c-3.6-5.5-8.5-13.3-10.8-17.4l-4.1-7.4v-60.4l13.1-13.6c7.2-7.5,13.4-13.7,13.8-13.7.7,0,7.1,18.7,7.1,20.7,0,.6-2.7,3.7-6,6.9l-6,5.7-.2,44.6-.3,44.6-6.6-10h0Z"/>
      <path class="cls-3" d="M546.19,642.66c-.6-.7-1.5-2.9-2.2-4.8-1.5-4.3-4.2-22-3.6-23,.3-.4,2.5-1.1,5.1-1.5,2.5-.3,6.3-1.3,8.5-2l3.9-1.4v13.8q0,15.1-6.7,18.5-3.8,1.9-5,.4Z"/>
      <path class="cls-3" d="M564.89,619.66v-14.3l3.5-4.3c6.5-8.2,9.4-20.1,9.5-38.7,0-6.9.6-10.6,2.5-16,2.9-8.1,3-10.7,1-16.4-1.3-3.7-1.2-4.4.3-7.1l1.7-3h34.3c19.6,0,34.2.4,34.2.9,0,1.9-9.2,23.6-13.6,32.2-5.6,10.9-16.1,26.7-24.7,37.4-11.8,14.7-34.6,35.2-47.4,42.9-1,.6-1.3-2.4-1.3-13.6h0Z"/>
      <path class="cls-3" d="M316.99,623.76c-4.5-3.3-8.1-6.3-8.1-6.5,0-1,6.7-10.3,19.8-27.4,7.4-9.6,18.2-23.9,24-31.7l10.6-14.3h12.3c9.9,0,12.5.3,12.9,1.4.8,2.1-3,16.5-6.2,23.2-4.8,10.1-18,21.8-34.3,30.5-12,6.3-19.3,15.5-20.7,26.3-.4,2.5-1,4.6-1.5,4.6-.4,0-4.4-2.7-8.8-6.1h0Z"/>
      <path class="cls-3" d="M723.59,618.16c-.3-.5-.4-17.1-.1-36.9.2-19.7.2-38.4-.2-41.4-.6-5.4-.9-5.7-11.1-16l-10.4-10.5,1.6-9c.9-4.9,1.8-10,2.1-11.2l.4-2.3h29.5c27.4,0,29.5.1,29.5,1.8,0,3.8-4.1,27.4-6.5,38.2-5.9,25.2-15.5,52.2-26.3,73.5-7.1,14-7.8,15-8.5,13.8h0Z"/>
      <path class="cls-3" d="M291.39,600.46c-.6-.7-4.3-5.1-8.2-9.7l-7.3-8.4v-14l18.3-18.3,18.3-18.3,14.8.3,14.7.3-17.4,25.5c-9.7,14-20.4,29.6-23.9,34.7-3.4,5.1-6.8,9.2-7.3,9.3-.6,0-1.5-.6-2-1.4h0Z"/>
      <path class="cls-3" d="M160.59,596.06c-8.3-15.8-23.6-62.3-23.7-71.9,0-1.5,3.4-5.8,10-12.6l10-10.4,4,1.1c10.3,2.7,18.8-9.7,13-19.2-4.4-7.1-13.4-8-19.6-1.8-3.9,3.9-5.1,7.9-3.6,11.9,1,2.7.8,3.2-7,11.3-4.5,4.7-8.5,8.1-8.9,7.7-1.4-1.4-3.9-24-3.9-34.9v-10.4h27.9c21.1,0,28.1.3,28.8,1.3.6.6,1.3,5.7,1.7,11.3.5,8.5,3.9,30.1,6.1,38.5.6,2.2-1,4.2-15.2,18.2l-15.8,15.6-.5,24.8-.5,24.8-2.8-5.3h0Z"/>
      <path class="cls-3" d="M263.59,563.16c-8.5-14.5-10.8-9.7,18.4-38.9l25.4-25.4h29.2c16.1,0,29.3.3,29.3.8,0,.4-1.6,2.8-3.4,5.3l-3.4,4.6-7.5.6c-5.7.5-8.2.3-10.4-.8-3.4-1.8-9.4-2-11.1-.3-.7.7-1.2,2.9-1.2,5,0,3.4.5,4.2,4.6,7.1l4.6,3.2-14.2.3c-9.2.2-14.8.7-16,1.5-.9.7-10.3,10.1-20.9,21-14.9,15.3-19.2,20.2-18.8,21.7.3,1.1.4,2,.2,2s-2.3-3.5-4.8-7.7h0Z"/>
      <path class="cls-3" d="M251.59,540.26c-4.7-9.2-15.7-44.8-14.2-46.2.2-.3,4-.4,8.2-.3,7.4.2,7.9.4,10.2,3.3,2.6,3.2,7.6,5.8,11.3,5.8,2.9,0,8.4-3.8,9.7-6.8,1.6-3.3,1.3-8.8-.4-12.2-4.1-7.9-16.5-7.9-21.2,0-1.7,3-1.8,3-10.4,3-10,0-9.3.8-10.5-12.2l-.7-7.8h152.5l-2.1,3.3c-1.2,1.7-3.3,5.5-4.8,8.2-1.4,2.8-3.9,6.9-5.5,9.3l-2.9,4.2h-66.4l-25.6,25.6-25.7,25.7-1.5-2.9h0Z"/>
      <path class="cls-3" d="M389.39,533.86c-1.8-2-1.7-2,1.3-2,3.4,0,3.5.1,2.6,2.4-.8,2.1-1.7,2-3.9-.4Z"/>
      <path class="cls-3" d="M378.89,523.66c0-.3,1.5-2.6,3.3-5,4.6-6,7.8-6.2,13.8-.9,3.2,2.9,4.1,4.2,3.3,5.1-1.2,1.2-20.4,2-20.4.8h0Z"/>
      <path class="cls-3" d="M536.29,512.36c-1.9-4.7-1.8-7.4.7-13.1,2-4.5,2.1-5.8,1.5-18.8l-.7-14,12.5,12.2,12.4,12.2h48.1c46.9,0,48.1,0,48.1,1.9,0,2.4-2.7,14.1-4,17.6l-1,2.5h-69.2l-3.7-4.1c-2.8-3.1-4.5-4.2-7.7-4.6-5-.6-9.9,1.6-12.2,5.8-1.6,2.6-2.2,2.9-7.3,2.9-3.1,0-7.8.7-10.5,1.5s-5,1.5-5.2,1.5-1-1.6-1.8-3.5h0Z"/>
      <path class="cls-3" d="M159.39,494.46c-1.1-.8-1.8-2.6-1.8-4.6,0-5.7,6.6-8.2,9.7-3.8,2.2,3.2,2,6.4-.6,8.2-2.8,2-4.8,2-7.3.2h0Z"/>
      <path class="cls-3" d="M555.09,472.56c-6.1-6.2-11.2-11.5-11.2-11.9,0-.3,6-.8,13.3-1,8.3-.3,15.9-1.1,20.4-2.3l7.3-1.8,5.9,5.6,6,5.7h65.1v2.4c0,1.2-.3,5.1-.6,8.5l-.7,6.1h-94.2l-11.3-11.3h0Z"/>
      <path class="cls-3" d="M707.29,477.76c.3-3.4.6-7.3.6-8.5v-2.4h58v17h-59.3l.7-6.1Z"/>
      <path class="cls-3" d="M130.39,458.76c-1.2-1.8,1.5-44.2,2.8-45.5.2-.2,7.3,6.6,15.7,15.1l15.4,15.5h23.6v16h-28.4c-19.1,0-28.7-.4-29.1-1.1h0Z"/>
      <path class="cls-3" d="M232.89,457.16c0-1.6.3-5.2.6-8l.7-5.3h75.9l3.6,3.2c5.9,5.1,14.3,8.5,29.7,11.7,2.4.6-18.8.9-53.2,1l-57.3.1v-2.7h0Z"/>
      <path class="cls-3" d="M380.39,458.86c.3-.5,3.1-1,6.1-1,3.4,0,5.3.4,4.9,1-.3.6-3.1,1-6.1,1-3.4,0-5.3-.4-4.9-1Z"/>
      <path class="cls-3" d="M596.09,456.56c-1.8-1.8-3.2-3.6-3.2-3.9s1.5-1.4,3.3-2.5c2.6-1.5,4-1.7,7.8-.9,5.6,1.1,11-1.1,13.6-5.5l1.7-2.9h42.3l.7,8.5c.4,4.7.4,9,.1,9.5-.4.6-12.3,1-31.9,1h-31.2l-3.2-3.3h0Z"/>
      <path class="cls-3" d="M707.89,450.16v-9.8l28.9.3,28.8.3.7,6.7c.3,3.7.6,7.9.6,9.5v2.7h-59v-9.7Z"/>
      <path class="cls-3" d="M234.49,436.96c-.6-.9.9-17.6,1.9-21.1.4-1.3,3.1-1.5,17.7-1.2,16.5.3,17.4.4,19.8,2.7,7.1,6.6,24.8,15.5,33.8,17,2.5.4,4.1,1.2,3.9,1.8-.5,1.5-76.2,2.3-77.1.8h0Z"/>
      <path class="cls-3" d="M150.89,420.26l-16.2-16.6.6-4.5c1.3-9.4,5.9-28.2,9.9-40.3l4.2-12.5.3,19.6.2,19.6,12.7,13.3c7,7.3,14.2,13.9,16,14.6,1.8.8,5.1,1.4,7.4,1.4h4.2l-.6,8.3c-.4,4.5-.7,9.4-.7,11v2.7h-21.7l-16.3-16.6h0Z"/>
      <path class="cls-3" d="M707.49,432.66c-.3-.7-.7-4.8-1.1-9.1l-.6-7.7,28.7.2,28.8.3.7,2.8c.4,1.6.9,5.4,1,8.5l.3,5.7-28.7.3c-22.5.2-28.8,0-29.1-1h0Z"/>
      <path class="cls-3" d="M617.89,432.06c0-1.4,10.9-6.2,14.1-6.2,4.3,0,8.4-2.4,10.9-6.5,2.1-3.5,2.3-3.5,9-3.5,3.8,0,7.1.4,7.4.8.3.5.8,4.3,1.2,8.5l.7,7.7h-21.7c-11.9,0-21.6-.4-21.6-.8h0Z"/>
      <path class="cls-3" d="M650.39,404.96c5.8-8.6,3.9-14.6-5-16-2.7-.4-4.3-1-3.5-1.4,4.2-1.6,9.2-2.8,9.7-2.4.7.7,4.8,15.2,5.7,20l.7,3.7h-10.1l2.5-3.9h0Z"/>
      <path class="cls-3" d="M704.59,408.16c-.2-.5-.7-2.5-1.1-4.6-.4-2.1-1-4.5-1.3-5.3-.4-1.2,2.5-1.4,19.3-1.4h19.9l7.7-7.7,7.7-7.7,1,2.7c.8,2.1,5.1,22.5,5.1,24.3,0,.7-57.9.4-58.3-.3h0Z"/>
      <path class="cls-3" d="M175.19,401.66c-3.6-3.5-9.2-9.3-12.4-13.1l-5.9-6.8v-54.9l6-12,6-12.1,6,7.4c3.2,4.1,6.6,7.9,7.4,8.7,1.3,1,1.6,3.7,1.6,13.8v12.6l-4,3.6c-2.9,2.5-4.3,4.5-4.6,7-1.6,10,8.9,18.1,17.6,13.7,3.3-1.7,7-7.4,7-10.9,0-4.6-2.6-9.5-5.9-11.3l-3.1-1.6v-19.1l3.3,2.2c1.7,1.1,5.6,3.5,8.4,5.1,5,2.9,5.2,3.2,3.8,5.2-1.8,2.6-1.9,7.4-.1,10.6,1.2,2.2.8,3.9-3.9,17.5-2.9,8.3-6.5,20.5-8,27.1s-2.9,12.3-3.1,12.7c-.3.5-2.6.8-5,.8-4.2,0-5.1-.5-11.1-6.2h0Z"/>
      <path class="cls-3" d="M238.89,405.76c0-1.2,1.2-6.7,2.7-12.1,2.1-8.1,2.9-9.8,4.2-9.3.9.4,4.9,1.6,8.9,2.8,6.6,1.9,8.7,3.7,6.2,5.2-1.7,1-1.1,6.8,1.1,10.4,1.1,1.8,1.9,3.4,1.7,3.6-.2.1-5.8.6-12.5,1l-12.3.7v-2.3h0Z"/>
      <path class="cls-3" d="M700.39,388.66c-.2-.7-1.3-4.7-2.5-8.9-1.1-4.2-3.1-10.9-4.5-14.9-2.8-8.3-3.3-7.1,6.2-17.2l6.3-6.6v-13.7l7.5-6.8,7.5-6.8v37.9l-2.5,1.6c-3.3,2.1-6.5,7.4-6.5,10.4,0,6.3,6.5,13.2,12.4,13.2,12.3,0,17.2-17.4,6.6-23.7l-3-1.7v-22.3c0-12.3.4-22.3.8-22.3,2.5,0,19.2,40,24.3,57.8l2.3,8.3-8.4,8.4-8.5,8.5h-18.8c-14.1,0-18.9-.3-19.2-1.2h0Z"/>
      <path class="cls-3" d="M373.29,348.36c-2-2.7-2.4-3.9-1.6-4.7.8-.8,2.1-.4,4.9,1.6,8.8,6.2,9,6.6,3.4,6.6-3.4,0-4.4-.5-6.7-3.5h0Z"/>
      <path class="cls-3" d="M692.19,339.86c-1.1-2.9-1-3.2,2.5-5.5l3.7-2.5.3,2.6c.3,1.9-.5,3.5-2.5,5.6l-2.9,2.8-1.1-3Z"/>
      <path class="cls-3" d="M499.89,331.36c0-.2,1.5-3.9,3.4-8.2,8.5-19.5,13.4-29.7,14.5-30.1.8-.3,1.1,4,.9,15.8l-.3,16.2-5,2c-5.7,2.3-13.5,4.8-13.5,4.3h0Z"/>
      <path class="cls-3" d="M398.89,326.76c-2.4-1.1-4.6-2.2-4.9-2.4-.6-.7,3-4.5,4.4-4.5,1.1,0,6,7.8,5.3,8.5-.2.2-2.3-.5-4.8-1.6Z"/>
      <path class="cls-3" d="M525.89,284.96c0-20.4.3-37.1.8-37.1.4.1,4.2,2,8.6,4.3l7.9,4.2-.1,12.8c-.1,11.4-.4,13.4-2.6,18.5-3.3,7.3-5.3,15.3-6.2,24-.8,8.4-1.1,9-5.2,9.8l-3.2.7v-37.2h0Z"/>
      <path class="cls-3" d="M375.59,316.86c-5.3-2.2-10.3-4-11.1-4-.9,0-1.5-1.8-1.9-5.2-.3-2.9-.9-6.6-1.2-8.3l-.6-3h5.9c5,0,6.5-.4,8.5-2.3,1.4-1.3,2.8-3.5,3.2-5,.5-2.1.8-2.3,1.9-1.1,2.4,2.5,13.6,22.2,13.6,23.9,0,1.4-6.8,9-8,9-.3,0-4.9-1.8-10.3-4Z"/>
      <path class="cls-3" d="M427.79,303.76c-5.2-5.7-13.7-15-18.7-20.7l-9.2-10.3v-35.6l8.3-1.7c4.5-.9,8.9-1.6,9.7-1.6,1.3,0,1.5,3.4,1.2,25.3l-.3,25.3,9.6,9.3,9.6,9.3-.3,5.6-.3,5.5-9.6-10.4h0Z"/>
      <path class="cls-3" d="M476.29,304.96c1.2-1.9-1.7-7-5.3-9.5l-3.7-2.6-2.3-15.6c-2.9-19.6-3.5-21.7-7.2-24.8-4.2-3.5-8.9-3.5-12.9.2-3.8,3.3-4.7,7-6,24.8-.5,7.5-1.2,13.9-1.4,14.1-.3.3-2.7-1.6-5.5-4.2l-5-4.7-.3-24.9c-.2-20,0-25,1-25.4,3.1-1.2,37.7-.4,47.5,1,5.6.9,10.9,1.8,11.7,2,1.3.4,1.5,4.2,1.2,28.1l-.3,27.5-5.6,7.5c-3,4.1-5.7,7.4-6,7.4-.2,0-.2-.4.1-.9Z"/>
      <path class="cls-3" d="M351.19,277.66c-2.3-3.1-6.3-7.3-8.8-9.3l-4.5-3.8,3.2-2.2c5-3.3,20.4-11.5,21.7-11.5.7,0,1.1,3.1,1.1,10v10l-3.9,3.9c-2.2,2.2-4.1,5-4.3,6.2-.3,2-.8,1.6-4.5-3.3h0Z"/>
      <path class="cls-3" d="M495.59,277.66c.1-1.8.2-11.5.2-21.5.1-16.8.2-18.3,1.9-18.2.9,0,6,1.5,11.2,3.2l9.5,3.2.3,10.3.3,10.2-4.1-.6c-3.9-.6-4.2-.5-9.3,4.7-2.9,3-6.4,6.9-7.7,8.7l-2.5,3.4.2-3.4h0Z"/>
      <path class="cls-3" d="M371.09,259.66l.3-13.2,5.5-2.2c3-1.2,7.9-2.9,10.8-3.7l5.2-1.6v26.2l-2.2-2c-3.7-3.3-6.7-4.5-9.8-3.8-4.1.9-8,5.8-8,10.1,0,1.9-.5,3.4-1,3.4-.7,0-1-4.6-.8-13.2h0Z"/>
      <path class="cls-3" d="M550.69,265.96l-.3-5.9,2.5,1.3c6.2,3.3,6.3,3.7,2.1,7.2l-3.9,3.3-.4-5.9h0Z"/>
      <path class="cls-3" d="M287.09,240.26c-2-1.4-2.2-2.4-2.2-9.7,0-8.1.1-8.2,3-9.9,6.9-3.9,7.7-13.9,1.5-19.5-2.8-2.7-4.3-3.3-8-3.3-2.6,0-5.7.7-7.2,1.7-2.9,1.9-5.3,6.9-5.3,11,0,3.7,3.3,9,6.5,10.5,2.3,1,2.5,1.6,2.5,8.5,0,7.3-.1,7.4-2.2,6.7-2.3-.7-22.2-8.2-33.2-12.5l-5.9-2.3,5.9-5.3c12.6-11.4,43.7-33.7,52.8-38,1.7-.8,4.9-2.5,7.1-3.8,2.1-1.3,4.3-2.1,4.7-1.9.4.3.8,13,.8,28.4v27.8l-8.9,6.6c-4.8,3.6-9,6.6-9.2,6.6-.3,0-1.5-.7-2.7-1.6h0Z"/>
      <path class="cls-3" d="M595.59,234.76c-5.3-3.9-9.7-7.4-9.7-7.9s2.6-3.1,5.7-5.9l5.7-5.1h56l3.3,3.2,3.2,3.1-26.1,9.9c-14.3,5.4-26.6,9.8-27.2,9.8s-5.5-3.2-10.9-7.1Z"/>
      <path class="cls-3" d="M314.89,195.86v-28.1l6.7-3.1c3.7-1.6,7.7-3.4,9-3.9l2.3-.9v53.8l-8.2,4.7c-4.6,2.6-8.6,5-9,5.2-.5.2-.8-12.2-.8-27.7h0Z"/>
      <path class="cls-3" d="M569.09,217.46c-5.1-3-11.1-6.2-13.3-7.2l-4-1.7,6.8-6.9,6.7-6.8h61.9l6.6,4.9c12,8.9,12.1,8.7-3.7,8.3-7.5-.2-18.9,0-25.2.3l-11.4.7-7.1,6.9c-4,3.8-7.3,6.9-7.6,6.9-.2,0-4.6-2.5-9.7-5.4Z"/>
      <path class="cls-3" d="M339.89,183.46c0-24.2.1-26.4,1.8-27.1,2.2-.9,21.5-7.5,21.9-7.5.2,0,.2,11.5.1,25.6l-.3,25.7-11.5,4.8c-6.3,2.7-11.6,4.9-11.7,4.9-.2,0-.3-11.9-.3-26.4Z"/>
      <path class="cls-3" d="M532.89,200.76c-9.1-3.5-16.2-5.6-33.2-10l-3.8-1v-5.8c0-5.2.3-5.9,3.1-8,1.6-1.2,3.5-3.3,4.1-4.7l1.1-2.4h80l9.4,5c5.1,2.7,12.4,6.9,16.1,9.2l6.7,4.3-27.1.5-27,.5-8.8,8c-4.8,4.4-9.1,8.1-9.4,8.2-.4.1-5.4-1.6-11.2-3.8h0Z"/>
      <path class="cls-3" d="M370.89,173.06c0-21.9.2-24,1.8-25.6,1-.9,5.9-2.4,10.8-3.5l8.9-1.8.3,24c.1,13.3-.1,24.4-.5,24.8-.7.6-19.1,5.9-20.7,5.9-.3,0-.6-10.7-.6-23.8h0Z"/>
      <path class="cls-3" d="M400.59,189.16c-.4-.3-.7-11.3-.7-24.3v-23.7l8.8-1.4c6.2-1,18.1-1.4,42.2-1.4,30.6,0,34.6.2,46.5,2.3,22.5,4.1,51.4,12.3,66.5,19.1l4.5,2h-32.2l-32.2.1-1.7-3c-2-3.2-6.8-6-10.6-6-5.5,0-11.8,6.6-11.8,12.5,0,4.1,2.7,9.4,5.4,10.7,2.3,1,2.6,1.7,2.6,6.6v5.5l-6.2-.8c-12.8-1.4-34.1-2.3-44.3-1.7l-10.5.5v-4c0-3.3.4-4.2,2.5-5.1,6.1-2.8,8.3-12.2,4.2-18.3-2.9-4.3-6-5.9-11.5-5.9-3.7,0-5,.6-7.7,3.3-6.2,6.2-5.9,13.4.5,19,3.4,2.9,4,4,4,7.5v4l-7.2,1.2c-4,.6-8,1.3-8.9,1.6-.8.2-1.8.1-2.2-.3h0Z"/>
      <path class="cls-3" d="M418.59,169.06c-2.2-2.5-2.1-5.5.2-7.6,4.8-4.4,12.2,1.5,8.7,7-2,2.9-6.5,3.2-8.9.6Z"/>
    </g>
    <g>
      <path class="cls-5" d="M424.19,867.16c-3-6.5-6.6-14.2-7.9-17-3.5-8.1-5-7.1-5.8,4.3-.4,5.3-.9,12.3-1.3,15.6l-.6,5.9-4.6-.3-4.5-.3.2-5.5c.4-8.3,3.2-43.2,3.8-45.8.4-2.1,1-2.3,5.1-2l4.6.3,8,17.3c4.5,9.4,8.4,17.2,8.8,17.2.3,0,.9-3.9,1.3-8.7.3-4.9.9-12.3,1.2-16.5l.7-7.8h8.7v4.8c0,2.6-.7,13.7-1.5,24.7s-1.5,21.2-1.5,22.8c0,2.5-.3,2.7-4.6,2.7h-4.5l-5.6-11.7h0Z"/>
      <path class="cls-5" d="M462.29,877.46c-4.7-2.1-9.2-8.2-10.4-14.1-1.5-7.3-1.6-24.3-.2-28.6,1.4-4.1,6.4-9.3,10.5-10.8,4.3-1.7,12.7-1.3,17.3.8,4.2,1.9,7.7,6.3,8.9,11.4q.7,2.7-4.4,2.7c-4.5,0-5.3-.3-6.1-2.4-2.3-6.1-9-7.3-13.8-2.3-2.6,2.7-3.3,4.4-3.8,9.3-.9,8.5,1.2,19.7,4.3,23.4,2,2.5,3.3,3,6.7,3,6.4,0,8.6-2.1,8.6-8.1v-4.9h-4.5c-4.4,0-4.5,0-4.5-3.4,0-3,.4-3.4,3.1-4,1.7-.3,6-.6,9.5-.6h6.4v10.8c0,11.9-.1,12.1-7.5,16.7-3.9,2.4-15.8,3.1-20.1,1.1h0Z"/>
      <path class="cls-5" d="M379.19,872.16c-1.3-.2-2.3-1.1-2.3-2,0-3.2,8.2-50.8,8.8-51.5.4-.4,2.6-.2,5,.4,3.2.8,4.1,1.5,3.8,2.7-.3.9-1.7,9.9-3.1,20.1-4,28.4-4.5,30.5-7.5,30.6-1.4.1-3.5,0-4.7-.3h0Z"/>
      <path class="cls-5" d="M523.49,870.16c-.8-2.5-11.6-49.7-11.6-50.5,0-1.5,13.4-4.8,19.4-4.8,8.7,0,14.2,2.9,18.2,9.7,3.9,6.6,5.7,15,5.3,24.5-.7,13.1-5.7,17.9-21.8,21.3-9,1.9-8.9,1.9-9.5-.2h0ZM541.49,858.36c3.6-2.3,4.9-8.6,3.4-16.5-2.4-13.7-7.5-19.7-15.5-18.5-2.2.3-4.4,1-4.9,1.5-.8.8,5.7,32.9,7.1,35.4.8,1.2,7,0,9.9-1.9Z"/>
      <path class="cls-5" d="M357.69,867.66c-3.3-1.2-3.3-1-.8-12.4,1.1-4.9,2-9.4,2-10,0-1.1-12.9-5.4-16.2-5.4-1.7,0-2.9,3-5.9,15.3-1.3,5.2-2.5,6.3-6.2,5.3-5.2-1.4-5.3-.8,1.9-28.1l6.8-25.7,3.5.6c1.9.3,3.9,1,4.4,1.5.6.6.1,4.5-1.3,10.6-1.2,5.3-1.8,10.1-1.4,10.5,1,.9,16.5,5.3,16.9,4.8.2-.2,1.3-3.9,2.4-8.3,2.8-10.4,3.8-12.5,5.3-12.1.7.3,2.5.7,4.1,1,1.8.4,2.7,1.3,2.7,2.6,0,1.7-7.9,35.5-11.1,47.3-1,4-2.2,4.4-7.1,2.5h0Z"/>
      <path class="cls-5" d="M570.09,853.66c-8.4-22.4-16.3-45-16-45.4.6-.6,27.9-11.4,28.8-11.4.8,0,3,4.6,3,6.5,0,.7-4,2.9-9.5,5.1-5.2,2-9.5,4.2-9.5,4.7,0,2.8,3.5,11.7,4.6,11.7.7,0,4.7-1.4,8.9-3.1,4.4-1.7,8.1-2.7,8.6-2.2s1.1,2.3,1.5,4c.5,2.7.3,3.2-1.7,3.8-5.8,1.8-15,6.7-14.6,7.8.2.7,1.2,3.6,2.1,6.4,1,2.9,2.1,5.5,2.6,5.8.4.3,4.9-1.1,10-3,10.6-4.1,11.6-4.2,13-1.6,1.8,3.5,1.1,4.8-4.2,7-2.9,1.2-6.2,2.6-7.3,3.1-3.2,1.4-16.5,6-17.5,6-.5,0-1.7-2.4-2.8-5.2h0Z"/>
      <path class="cls-5" d="M296.19,847.56c-1.7-.7-3.4-1.4-3.7-1.7-.5-.6,2.5-9,11-30.8,2.4-6.2,4.4-11.6,4.4-12.1s-2.7-2-6-3.4c-3.3-1.5-6-3-6-3.4,0-.5.8-2,1.7-3.3.9-1.4,1.7-2.6,1.8-2.7.1-.2,7.5,2.8,16.6,6.6,17.2,7.2,18.6,8.3,15.6,12.5-1.4,1.9-1.5,1.9-7.3-.3-6.7-2.5-7-2.4-10.1,5.8-6.7,18.3-13,33.5-13.8,33.7-.6.1-2.4-.3-4.2-.9h0Z"/>
      <path class="cls-5" d="M609.29,835.66c-2-4-7.2-14.9-11.6-24.3-7.4-15.9-7.8-17-6.1-18.3,2.5-1.8,6.3-2.6,7.3-1.6.4.5,4.6,8.8,9.2,18.4,4.6,9.6,8.9,18.4,9.5,19.4,1,1.8,1.5,1.7,10.3-2.5l9.2-4.3,2,2.3c1,1.4,1.8,3.1,1.6,3.9-.3,1.4-24,14.1-26.5,14.2-.7,0-2.9-3.3-4.9-7.2h0Z"/>
      <path class="cls-5" d="M639.69,806.16c-5.9-9.8-12-20.4-13.8-23.5l-3.1-5.7,11.5-7.5c16.3-10.6,15-10.1,17.2-6.1,1,1.9,1.6,3.6,1.4,3.8-.3.2-4,2.8-8.2,5.6-4.3,2.9-8,5.6-8.2,6-.6.9,5.1,11.1,6.2,11.1.4,0,2.1-.8,3.7-1.8,1.7-1,5.1-3.1,7.7-4.6l4.7-2.7,1.5,3c.9,1.6,1.6,3.2,1.6,3.5s-3.4,2.8-7.5,5.6l-7.5,5.1,1.6,3.2c.9,1.8,2.7,4.6,4,6.4,2.9,3.8,3,3.8,13.4-2.9l7.5-4.8,2.3,2.5c1.2,1.5,2.2,3,2.2,3.5s-1.9,2.2-4.2,3.8c-4.5,3.1-22.6,14.2-23.2,14.2-.1,0-5-8-10.8-17.7h0Z"/>
      <path class="cls-5" d="M234.09,814.66c-2.3-1.4-3.1-2.6-2.7-3.7.3-.9,5.5-9.5,11.6-19.2,6-9.7,10.9-18.1,10.9-18.5,0-.5-2-2.2-4.4-3.7-6.6-4.2-7.1-5-4.4-8.2l2.3-2.6,14.5,9c7.9,5,15,9.7,15.7,10.4,1,1,.8,1.8-1.1,4.1l-2.3,3-4.6-2.7c-2.5-1.5-5.2-2.7-6-2.7s-4.1,4.2-7.2,9.3c-12.2,19.3-17.7,27.7-18.4,27.7-.3,0-2.1-1-3.9-2.2h0Z"/>
      <path class="cls-5" d="M671.79,778.66c-8.4-11.2-15.6-20.8-16.1-21.5-.7-.8.3-2,3.1-3.8l4-2.7,15.3,6.5c8.4,3.5,16.4,6.8,17.7,7.2l2.4.7-2.4-3.3c-1.3-1.9-5.6-7.8-9.6-13.2s-7.3-10.5-7.3-11.2c0-.8,1.3-2.3,2.9-3.4l2.8-2,2.1,2.2c3,3.3,30.3,38.9,30.8,40.2.3.7-1.1,2.4-3.1,4l-3.7,2.7-10.1-4.5c-21-9.3-24.7-10.7-24.7-8.9,0,.5,3.9,6,8.6,12.3,4.7,6.3,8.8,12,9.1,12.7.6,1.5-3.4,6.2-5.4,6.2-.7,0-8.1-9.1-16.4-20.2h0Z"/>
      <path class="cls-5" d="M203.69,792.96l-3.2-2.8,2.7-16.9c1.5-9.3,2.7-17.5,2.7-18.2,0-3-3.2-.2-12,10.6-5.1,6.1-9.6,11.2-9.9,11.2-.4,0-2.1-1.5-3.9-3.3l-3.2-3.3,5.5-6.3c3.1-3.4,10.7-12.5,17.1-20.1q11.6-13.9,14-12.3c3.2,2,4.3,4.2,3.8,7.3-.2,1.4-1.3,8.4-2.4,15.6-1.2,7.3-2,14.6-1.8,16.4.3,3.1.4,3.1,7.4-5.7,3.9-4.8,8.1-10.3,9.4-12,2.8-3.9,3.6-4,7.8-.9l3.2,2.3-7.2,9.4c-15.4,19.9-25.1,31.9-25.9,31.9-.5,0-2.3-1.3-4.1-2.9Z"/>
      <path class="cls-5" d="M710.39,746.76c-9.4-10-17.4-18.8-17.8-19.5-.6-1,.2-2.8,2.2-5.3,7.6-9.5,16.5-14.8,23.3-13.7,11.8,1.9,24.4,14.4,27,26.8,1.8,8.6.2,12.6-9,22-4.1,4.3-7.8,7.8-8.2,7.8-.3,0-8.2-8.2-17.5-18.1ZM733.19,748.76c3.4-4.7,3.8-9.3,1.1-14.7-3.4-6.9-8.7-12.7-13.9-15.2-3.8-1.9-5-2-7.7-1.1-4,1.4-7.8,4.9-7.8,7.2,0,2.1,23.8,27.1,25.3,26.6.6-.2,1.9-1.5,3-2.8h0Z"/>
      <path class="cls-5" d="M156.99,750.36l-11.4-11.5,18.3-19c10-10.4,18.6-19,18.9-19,1.4,0,22.1,21.7,22.1,23.2,0,.8-1,2.4-2.3,3.6l-2.3,2.2-7.9-8-7.9-8-4.8,4.7-4.7,4.7,6.4,7.1,6.4,7.2-2.3,2.2c-1.2,1.1-2.7,2.1-3.2,2.1s-3.4-2.5-6.4-5.5-6.1-5.5-6.9-5.5c-1.6,0-10.1,7.8-10.1,9.3,0,.4,3.4,4.4,7.6,8.8l7.6,8-2.3,2.5c-1.2,1.3-2.5,2.4-2.9,2.4-.3,0-5.7-5.2-11.9-11.5h0Z"/>
      <path class="cls-5" d="M752.79,724.56c-15.2-23.7-24.3-38.3-24.6-39.7-.2-.8,1.1-3,3-4.8l3.4-3.3,16.9,6.6c9.3,3.6,20.8,8.2,25.6,10.2l8.7,3.7-1.7,2.9c-2.7,4.5-3.5,4.9-8.4,3.6-6.3-1.7-8.7-.7-13.6,5.7l-4.2,5.7,2,3.1c4.3,6.4,4.4,7.2,2.1,10.5-1.2,1.7-2.8,3.1-3.4,3.1-.7,0-3.3-3.3-5.8-7.3ZM756.79,702.36c1.7-2,3.1-4,3.1-4.6,0-.5-2.8-2.3-6.3-3.8-8.5-3.8-10.7-4.5-10.7-3.2,0,1.5,9.1,15.1,10,15.1.5,0,2.2-1.6,3.9-3.5Z"/>
      <path class="cls-5" d="M134.49,725.56c-1.5-1.9-2.6-4.1-2.6-5.1,0-.9,1.8-5.2,4-9.6,4.5-9,4.7-10.5,1.9-13.9l-2-2.4-4.7,3.3c-2.6,1.8-5.9,4.2-7.4,5.3-3.1,2.3-5,1.8-7.4-1.8-1.6-2.4-1.6-2.7.2-4.6,1.1-1.2,10.4-8.6,20.8-16.6l18.9-14.4,2.4,2.8c1.3,1.5,4.5,6.1,7.2,10,7.8,11.4,7.9,18.2.5,25.4-3.2,3.1-4.1,3.4-10.7,3.7l-7.2.4-4.9,10.4c-2.7,5.7-5.3,10.4-5.7,10.4s-1.9-1.5-3.3-3.3h0ZM159.39,696.36c3.1-3,3.3-7.5.5-12.1-3-4.8-5.3-5.1-9.9-1.5-6.4,5.1-6.6,5.6-4.1,9.6,4.2,6.8,9.3,8.3,13.5,4Z"/>
      <path class="cls-5" d="M105.49,684.06c-1.4-2.1-2.6-4.2-2.6-4.7s2.4-4.5,5.4-8.9c2.9-4.5,5.6-8.7,6-9.3.9-1.6-2.4-7.3-4.2-7.3-.7,0-4.7,1.8-8.8,4.1-8.2,4.5-9.3,4.4-11.3-1.1l-1-3,20.9-12.5c11.4-6.9,21.7-12.5,22.7-12.5,3.4,0,13.3,18.6,13.3,25.1,0,4.4-2.3,9.1-5.9,12.2-2.9,2.4-4.1,2.7-10.4,2.7-4,0-7.7.4-8.3.8-.6.4-3.6,4.6-6.7,9.5-3.1,4.8-5.8,8.7-6,8.7-.3,0-1.6-1.7-3.1-3.8h0ZM133.89,657.86c2.5-2.5,2.6-8.6.3-13.5-2-4.3-3.2-4.4-7.6-.5-1.9,1.7-4.1,3-4.9,3-4.8,0-3.6,5.5,2.2,10.4,3.8,3.1,7.3,3.3,10,.6Z"/>
      <path class="cls-5" d="M786.39,661.26c-8.2-4.7-18-10.1-21.7-12.1-3.8-1.9-6.8-4.1-6.8-4.8,0-2.5,12.3-27.5,13.5-27.5.7,0,2.3.8,3.6,1.9l2.3,1.8-3.7,8.6c-2,4.7-3.7,9.2-3.7,10,0,.9,2,2.6,4.5,4,5,2.8,4.9,2.9,8.8-4.8,4.3-8.5,4.9-9.1,8.6-7.6,1.7.8,3.1,1.5,3.1,1.7,0,.3-1.8,4.1-4.1,8.5-4.6,9.2-4.8,8.4,4.3,13.4l4.6,2.5,4.1-7.4c2.3-4.1,5-8.4,5.9-9.6,1.8-2.2,1.9-2.2,5-.6l3.3,1.7-3.7,6.7c-8.6,15.4-11.6,20.7-12.2,21.4-.4.4-7.4-3.1-15.7-7.8h0Z"/>
      <path class="cls-5" d="M83.39,634.46c-4-1.7-9-7.5-10.5-12.1-1.6-4.9-.8-13,1.7-16.3,1-1.5,5.5-4.6,9.9-6.9,9.8-5.2,27.9-13.3,29.8-13.3,2.1,0,4.1,6.7,2.6,8.5-.7.8-1.6,1.5-2.1,1.5s-4.1,1.6-8.1,3.6c-4,1.9-10.6,4.9-14.6,6.6-3.9,1.6-8.1,4.1-9.2,5.5-4.5,5.7-.8,14.3,6.1,14.3,1.9,0,10-3.1,19.5-7.5,9-4.1,16.6-7.5,16.9-7.5,1.1,0,3.7,7.2,2.8,8-1.6,1.6-10.3,6.1-22.2,11.5-12.7,5.8-17,6.6-22.6,4.1h0Z"/>
      <path class="cls-5" d="M810.19,626.16c-1.6-.6-1.7-3.4-.1-6.8.8-1.7,1.9-2.5,3.7-2.5,3.6,0,7-2.6,8.7-6.7,2.1-5,.2-8.7-4.8-9.1-3.3-.3-4.3.3-10.6,6.2-3.7,3.6-8.1,7-9.6,7.6-10.3,3.9-20.4-4.2-19.2-15.4,1.1-10.1,8.5-17.6,17.6-17.6,3.6,0,4,.2,4,2.6,0,4.2-1.7,6-6.5,7.4-5,1.4-6.5,3.2-6.5,7.8,0,3.3,2.7,6.2,5.7,6.2,2.1,0,10-5.7,13.8-10,3-3.4,6.9-5,11.9-5,3.6,0,5.2.6,8.1,3.1,4.7,4.1,6.1,9,4.6,16-.7,3-2.3,7.1-3.7,9.2-3.6,5.5-12.2,9-17.1,7h0Z"/>
      <path class="cls-5" d="M68.69,589.46c-6-2.1-8.4-4.2-10.7-8.9-4.6-9.6-2-20.8,6.4-26.8,12.2-8.7,30.3-9.3,38.8-1.1,7.7,7.3,6.8,23.1-1.6,28.2-4.2,2.6-4.5,2.6-6.3-1.3-1.6-3.3-1.6-3.4,1.5-6.4,3.5-3.6,4.2-9.2,1.6-13-1.9-2.7-7.8-4.7-10.2-3.5-1,.5-4.3,1.2-7.4,1.5-7.1.7-11.4,2.9-13.9,7-4,6.5-1.3,13.8,6.1,16.2,2.7.9,3.5,1.9,4,4.6.4,1.8.5,3.7.3,4.1-.7,1.2-4.4.9-8.6-.6h0Z"/>
      <path class="cls-5" d="M790.09,573.06c-1-.7-.4-4.2,2.8-16.3,5.4-21.1,5.6-21.4,6.3-21.3,7.4,1.4,7,1,6.1,6.1-1.8,11-2.2,10.5,9.1,13.4,12.8,3.3,30.5,8.8,30.5,9.5,0,2.3-3.2,7.4-4.7,7.4-1,0-10.1-2.2-20.2-5-10.2-2.7-18.8-4.7-19.3-4.4-.4.3-.8,1.2-.8,1.9,0,.8-.7,3.3-1.6,5.5-1.3,3.3-2.1,4-4.3,4-1.4,0-3.2-.4-3.9-.8h0Z"/>
      <path class="cls-5" d="M338.09,449.36c-9.5-2.4-17.5-6.2-16.9-7.8.1-.5,3-1.9,6.4-3.2,7.1-2.5,14-6.4,16.7-9.4l1.9-2.1-14.4.6c-17.6.7-25.6-.7-37.9-6.7-6.5-3.2-10.3-6-16.1-11.8-4.2-4.2-8.1-8.6-8.8-9.8-1.2-2.3-1.1-2.3,5-2.3,11.1,0,31.2-4,42.2-8.5,3.9-1.6,1-2.2-12.9-2.9-41.3-1.8-59.8-7.4-76.3-23.1-6.5-6.1-14.6-16.3-13.7-17.2.1-.2,4,.8,8.5,2.2,4.6,1.3,14.7,3.2,22.4,4.1,7.8.9,23.4,2.9,34.7,4.5,11.2,1.5,20.6,2.6,20.8,2.4.2-.2-1.8-1.8-4.4-3.5-5.9-3.7-16.9-7.3-29-9.5-39.4-7.1-56.9-13.9-74.7-28.8-4.6-3.8-17.7-20.1-17.7-21.9,0-1.5,3.1-.8,8.8,2.1,6.6,3.3,25.5,8.9,42.2,12.6,17,3.7,32.5,8,44.9,12.4,6.1,2.1,11.1,3.5,11.1,3.1,0-1.4-10.5-8.7-17.6-12.3-3.8-1.9-13-5.4-20.4-7.7-40.1-12.4-57.7-19.8-71-29.9-9.5-7.2-22.2-20.8-26.2-28.2-3.9-6.9-6.3-13.7-5.4-14.6.3-.3,3.7,1.5,7.5,4,14.7,9.8,30.9,17.5,59.6,28.4,20.1,7.6,38.4,15.2,47.9,20,3.7,1.9,7,3.3,7.2,3,.2-.2-1.2-2.2-3.1-4.5-5.5-6.4-16.5-13.1-41.8-25.6-32.6-16.1-47.8-26.4-61-41.4-11.1-12.4-17.7-25.4-19.3-37.4-.8-6-1.4-6.1,10.1,2.7,29.8,23,61.7,39.1,118,59.9,21,7.7,41.8,15.8,49.7,19.4,14.2,6.5,27.3,17.3,33,27.2,5.4,9.4,8.5,24.4,6.6,31.6-1,3.5-1,5.1.1,7.7.7,1.7,2.3,6.1,3.6,9.7,3,8.9,4.7,11.9,10.4,18.8l5,5.9-5.2.7c-11.7,1.4-12.8,1.1-18.3-4.6-9.6-9.9-13.4-17.4-19.4-38.3-5.8-20.1-13.7-31.9-27.9-41.5-7-4.7-42-22-44.5-22-.9,0-1.6.4-1.6.9,0,1.8,9.7,9.4,19,14.9,26.1,15.3,32.8,20.5,38.8,30.5,1.9,3.1,6,12.9,9.1,21.9,7.4,20.9,8.3,22.6,18.4,35l3.9,4.8-2.7,1c-1.4.5-3,1-3.5,1-.4,0-2.2,1.3-3.9,2.9-5.5,5.1-3.7,13.7,3.5,16.7,2.2.9,11.9,1.7,30.1,2.5,14.7.6,27,1.3,27.2,1.5s-6.8,7.7-15.5,16.8c-8.7,9.1-16.8,18.2-18.1,20.3-4.5,7.5-2,15.2,5.7,17.3,5.1,1.4,8.4,0,19.3-7.8,12.6-9,19.5-13.4,20.5-13.1,1.4.6-8,22.2-9.8,22.6-.8.3-2.4.8-3.5,1.3s-3.3,1.1-5,1.5c-1.6.3-4.8,1.1-7,1.7s-11.2,1.3-20,1.4c-14.3.3-17,.1-25.3-2.1h0Z"/>
      <path class="cls-5" d="M539.29,450.96c-4-1-5.4-1.9-5.4-3.6,0-.7-1.6-4.5-3.7-8.4-2-3.9-3.4-7.4-3-7.7.3-.3,1.5,0,2.8.6,3.1,1.7,9.6.6,12.5-2.1,3.2-3,3.4-10.4.3-14.2-1.1-1.5-7.9-6.8-15-11.8-9.6-6.8-12.7-9.4-11.9-10.4.6-.8,7.4-1.6,19.2-2.4,24-1.6,28-2.4,31.3-6.2,3.7-4.5,3.3-8.3-1.3-12.9-2.9-2.9-5-4-9.5-5l-5.8-1.2,3.8-4.1c8.7-9.5,13.4-18.2,20-37,6.9-19.9,8.7-23.2,17.2-31.7,5.7-5.6,11-9.5,21.1-15.4,7.4-4.4,15.8-9.4,18.5-11.2,5.8-3.8,14.1-11.7,12.7-12.2-.5-.1-10.1,4.2-21.4,9.6-40.5,19.6-46.2,25.6-56.4,60.5-4.5,15.4-9,23.9-17.2,32.8l-6.6,7.1-8.5-.6c-4.7-.4-8.9-1-9.4-1.3-.4-.3,1.4-2.8,4-5.6,2.7-2.9,5.9-6.8,7.1-8.9,1.2-2,4.5-5.1,7.2-6.8,2.8-1.8,6.1-4.5,7.5-6.2,4.8-5.7,2.3-14.8-4.6-16.3l-3.1-.7.7-5.7c2.8-23.7,13.3-38,36.3-49.5,6.4-3.2,51.3-21,58.2-23.1,5.8-1.7,42.9-16.9,52.8-21.5,21.5-10.2,42.4-22.7,59.4-35.6,5.4-4.1,10-7.4,10.4-7.4,1.3,0-.7,11.4-3,17.2-1.3,3.2-3.9,8.4-5.7,11.5-4.2,7-21.7,25.4-28.4,30-2.7,1.8-6.1,4-7.5,4.9-1.4,1-3.7,2.5-5.3,3.6-4.4,3-13.2,7.6-38.6,20.2-16.3,8-18.6,9.3-20,11-.7.9-1.9,1.6-2.5,1.6-1.6,0-13.2,10.7-12.5,11.4.4.4,3.3-.5,6.5-2,18.6-8.4,27.1-12,37.9-16,34.2-12.8,51.9-20.9,67-30.8,6.6-4.3,10.1-6.1,10.3-5.2.5,2.1-4.2,12.9-7.9,18.3-4.4,6.4-14,16.4-21.4,22.2-13.7,10.8-33.7,20.2-58,27.1-18.7,5.3-28.1,8.7-37,13.4-6.9,3.6-16,10.4-15.2,11.2.2.3,4.9-1.1,10.3-3.1,11-4,25.8-8.1,43.9-12.1,17.7-3.9,34.6-8.9,43.2-12.9,4.2-1.9,7.8-3.3,8.1-3s-1.6,3.7-4.3,7.5c-5.9,8.7-18.4,20.5-26.5,25.1-3.4,1.9-7.4,4.4-9,5.7-1.5,1.2-3.6,2.2-4.6,2.2s-4.8,1.1-8.4,2.4c-7,2.6-15.1,4.5-30,7.1-22.5,4-35.9,8.4-40.5,13.5l-2,2.2,4-.7c2.2-.4,7.4-1.3,11.5-2,4.1-.8,17.8-2.5,30.4-4,14.1-1.6,26.1-3.6,31.3-5.1,4.7-1.4,8.7-2.3,8.9-2.1,1.4,1.4-21.7,26.7-24.4,26.7-.7,0-4.1,1.4-7.5,3.2-11.1,5.6-25.9,8.8-46.1,9.9-16.6.9-22.1,2-19.9,3.9,2.5,2.2,29.9,6.7,47.1,7.7,6.1.3,11.2.9,11.2,1.3,0,3-12.8,16-21,21.2-10.8,6.9-31.4,10.3-49,8-4.1-.5-7.7-.7-8-.5-1.4,1.3,11.7,9.2,20,12,3.6,1.2,6.5,2.6,6.5,3,0,1.8-11.5,6.8-19.5,8.5-8.8,1.8-28.5,2.3-34.6.9h0Z"/>
      <path class="cls-5" d="M655.79,175.06c-14.1-10.7-13.8-10.2-9.9-15.5,3.5-4.9,5.6-6.2,11.2-7.2,5.2-.8,12.8-6.2,16.5-11.7,7.9-12,5.7-25.5-5-30.7-7.7-3.7-14.5-2.6-21.1,3.7-7.7,7.4-10.6,19.3-7.5,30.6,1,3.5.8,4.2-2.5,9.2-4.3,6.4-2.7,6.7-18.4-3.8l-10.2-6.9,1.4-2.7c3.7-7.1,3.6-7,11.1-2.3,3.7,2.3,7,4,7.3,3.7.2-.3-.1-2.5-.7-5-1.4-5.9-1.4-16.8.1-21.9,1.7-5.7,9.6-13.9,16-16.7,8.4-3.7,16.9-3.2,26.2,1.4,9.5,4.7,16.7,11.4,20.2,19,2.3,5.2,2.6,6.7,2.2,14-.5,9.4-2.6,14.1-8.5,19.7-5.3,5.1-9.7,7.1-17,7.7-9.4.7-9.6,2-1.3,8.2,3.8,2.8,7,5.5,7,5.9,0,.7-5.9,9.1-6.4,9.1-.2,0-5-3.5-10.7-7.8h0Z"/>
      <path class="cls-5" d="M213.89,151.36c-10.4-15.7-19-29.2-19-29.9,0-.8,2.6-3.3,5.7-5.5,5.6-4,5.7-4,9.2-2.5,22.6,9.6,47.4,19.5,47.8,19,.3-.3-4.4-8.1-10.4-17.3-15.2-23.2-14.3-20.7-8.6-24.3,2.6-1.6,5.6-3,6.8-3,2,0,10,11.6,33.5,48.8,5.9,9.3,5.9,9.1-2,14.2-4.8,3.1-4.9,3.1-8.7,1.5-27.3-11.7-44.8-18.4-45.6-17.6-.7.7,3.1,7.3,10.6,18.9,6.5,9.8,11.7,18.2,11.7,18.5,0,.8-9.6,7.7-10.9,7.7-.6,0-9.6-12.8-20.1-28.5h0Z"/>
      <path class="cls-5" d="M295.49,132.66c-1.4-3.5-5.1-12.8-8.2-20.8s-7.6-19.5-10-25.7-4.4-11.9-4.4-12.7c0-2,3.1-3.5,19.3-9.9,11.9-4.6,14-5.1,21.3-5.1,7.1-.1,8.5.2,12.1,2.6,5.4,3.6,8.8,10.5,8.7,17.8,0,5.2-1.2,8.4-4.9,13.6-1.5,2-1,2.5,11,12.9,7,5.9,12.3,11.1,11.8,11.6-1.3,1.2-11.2,4.9-13.2,4.9-1.1,0-6.7-4.2-12.5-9.4l-10.6-9.4-3.7,1c-3.5,1-9.3,3.5-9.3,4.1,0,.2,2,5.6,4.5,12.1,2.5,6.6,4.5,12.1,4.5,12.3,0,.4-12.5,6.3-13.4,6.3-.2,0-1.5-2.8-3-6.2h0ZM307.19,92.96c9.2-4.2,11.7-6.8,11.7-11.9,0-8.9-6.4-13.3-14.3-9.8-1.8.8-5.6,2.2-8.4,3.2-2.9,1-5.3,2.3-5.3,2.8,0,1.4,7,19.6,7.6,19.6.2,0,4.1-1.7,8.7-3.9h0Z"/>
      <path class="cls-5" d="M593.89,136.76c-4.5-1.8-8.8-5.9-10-9.4-1.3-4-1.5-4-6.3-2-4.6,1.9-7,1.9-13.6-.1-6.2-1.8-12.7-7.3-15.2-12.9-3.7-8.1-1.3-23.6,5.1-32.4,3.7-5.1,10.5-9.5,16.9-11.1,6-1.4,14.4.5,19.7,4.5,3.4,2.6,7.4,9,7.4,12,0,2.5,1.7,1.7,3.9-1.7,1.1-1.8,2.5-3.9,2.9-4.6.8-1.1,1.9-1,6.1.8,2.8,1.3,5.1,2.6,5.1,3.1s-2.2,4.4-4.8,8.7c-2.7,4.2-7,11.7-9.6,16.6-3.9,7.5-4.6,9.7-4.4,13.5.3,4.2.6,4.7,3.6,5.6,3.6,1,4.1,2.9,1.7,7.5-1.6,3.2-4,3.7-8.5,1.9h0ZM581.39,112.46c2.4-2.4,4.9-6.5,5.9-9.2,2-5.9,2.1-15.6.1-19.3-2.9-5.7-11.6-6.5-16.9-1.6-3.9,3.6-7.9,13-8.4,19.8-.8,10,2.7,14.7,10.7,14.7,3.9,0,4.9-.5,8.6-4.4h0Z"/>
      <path class="cls-5" d="M380.89,109.46c-16.1-4.3-26-20.8-24.8-41.2,1.1-19,12.9-30.3,32.5-31.2,7.1-.3,8.9-.1,13.5,2.1,10.2,4.6,15.5,11.1,19.2,23.6,2,6.9,2.1,19.2.1,25.8-1.9,6.3-9,14.5-15.4,17.8-4.5,2.2-14.2,4.6-18.5,4.4-1.2,0-4.1-.6-6.6-1.3h0ZM397.19,97.46c10.6-4.4,13.5-21.5,6.5-37.7-6.2-14.5-23.1-16.1-29.8-2.8-4,7.7-2.2,26.9,3.2,34.9,4.4,6.3,12.8,8.7,20.1,5.6h0Z"/>
      <path class="cls-5" d="M452.89,103.96l-11.5-.6.2-13.5c.1-7.4.5-23.3.9-35.2l.6-21.8h7.4c5.2,0,7.4.4,7.5,1.3.2,4.7-.2,27-.7,41.5l-.7,17.2h7.5c4.1,0,11.6.3,16.7.7l9.2.6-.3,5.1-.3,5.1-12.5.1c-6.9,0-17.7-.2-24-.5h0Z"/>
      <path class="cls-5" d="M516.39,84.76c-15.7-2.5-14.9-2.1-14.1-7.2.4-2.3,1.1-4.6,1.7-5.2.8-.8,21,1.4,28.7,3.2,2.3.6,2.7,2.4,1.6,8.2q-.8,3.7-17.9,1Z"/>
    </g>
    <polygon class="cls-1" points="347.55 530.2 362.39 538.86 228.39 711.86 347.55 530.2"/>
    <polygon class="cls-1" points="232.39 708.36 223.89 714.86 317.89 575.2 326.22 575.2 232.39 708.36"/>
    <path class="cls-1" d="M346.86,530.29c3.25-.38,6.63-.75,9.71.34s5.74,4.13,5.26,7.36c-.64,4.34-6,6.13-14.98-7.7Z"/>
    <path class="cls-5" d="M501.89,78.86c.5-1.67,1-3.33,1.83-5.85,8.41.38,16.79,1.51,24.99,3.37,1.93.44,4.05,1.06,5.07,2.76s-.28,4.57-2.78,4.55c-9.65,1.13-19.58-.24-29.11-4.84Z"/>
    <path class="cls-1" d="M388.45,595.01c-6.74,9.2-16.09,16.47-26.68,20.73,8.69-7.38,17.77-14.3,26.68-20.73Z"/>
  </g>
  <g id="Layer_3" data-name="Layer 3">
    <path class="cls-3" d="M533.34,515.8c-1.83-4.17-3.51-8.4-5.5-12.5-.32-.65-.56-1.29-.77-1.92-.27,2.77.33,5.37,1.82,8.23,1.1,2.2,2,4.5,2,5.2,0,.76,1,1.16,2.58,1.23-.04-.08-.09-.15-.12-.24Z"/>
    <g>
      <path class="cls-2" d="M530.89,515.71c0-3.35-.2-5.76-.97-7.86-.17-.4-.35-.8-.52-1.19-1.47-2.94-4.31-5.47-9.71-9.54-4.2-3.2-8.6-7.6-10.5-10.5-5.9-9.2-7.2-10.4-12.8-12.1-3-.8-6.9-1.4-8.7-1.2-3.2.3-3.3.5-3.6,5.1-.3,3.8,0,4.8,1.5,5.3,5,1.6,7.3,2.7,7.3,3.5,0,.5-.9.9-2,.9s-2,.4-2,.8c0,.5-3.7,1.4-8.1,2-6.8,1-10.3.9-20.8-.5-6.9-.9-13.2-2.3-13.9-3s-2.7-1.3-4.3-1.3-2.9-.4-2.9-1c0-.5-1.6-1-3.5-1s-3.5-.4-3.5-1,3.5-1,8.5-1h8.5v-3.5c0-1.9.5-3.5,1-3.5.6,0,1,.5,1,1,0,.6,2.3,1,5.1,1,4.2,0,5.2-.3,5.6-1.9.3-1.2,1.1-1.7,1.9-1.4s4,.2,7-.2c4.4-.5,5.7-1.1,6.1-2.6.3-1.1,1.4-1.9,2.5-1.9s2.2-.8,2.5-1.9c.3-1.1,1.4-2.1,2.4-2.4,1.7-.5,2-1.3,1.7-5.9l-.3-5.3-4.2-.3c-3.3-.2-4.3,0-4.3,1.2,0,.8-1,1.6-2.2,1.8-1.5.2-2.4,1.1-2.6,2.6-.2,1.4-1,2.2-2.3,2.2-1.1,0-2.2.7-2.5,1.5-1.2,3-3.4,1.6-3.4-2,0-2.85-.15-3.39-2.32-3.48-.07,2.81-.17,5.62-.27,8.43,1.51.2,1.56.25-.01.31-.03.79-.05,1.59-.08,2.38-.36,8.35-13.36,8.36-13,0,.17-4.04.29-8.09.39-12.13h-2.01l.7,6.9.7,6.8-5.2.5c-2.8.3-9.2.3-14,0l-8.9-.5v-2.8c0-1.74-.14-2.45-1.19-2.73.13,1.38,0,2.79-.42,4.15-.29.92-.56,1.84-.83,2.77,1.26.22,1.44.96,1.44,3.31,0,2.6-.5,3.5-2.1,3.9-.66.2-1.11.43-1.4.88-.14.63-.27,1.25-.4,1.88-.02.68.02,1.54.1,2.64.3,4.4.5,4.8,3.1,5.1,1.5.2,2.7.9,2.7,1.8s1.1,1.4,3.4,1.4c2.1,0,3.6.6,4,1.5.3.9,1.9,1.5,4.1,1.5,2.4,0,3.5.4,3.5,1.5s1.1,1.5,3.9,1.5c2.5,0,4.1.5,4.5,1.5.3,1,1.9,1.5,4.6,1.5,2.2,0,4,.5,4,1,0,.6,1.9,1,4.2,1,3.8,0,4,.1,2.3,1.3-1.5,1.2-1.7,2.3-1.3,7.3.8,8.4,13.8,33.2,21.9,41.6h0c5.5,5.8,5.6,5.9,10.5,5.6l4.9-.3.3-4.8c.3-4.6.1-5.2-4.5-10-5.4-5.7-9.5-11.5-13.7-19.2l-2.7-5,2.9,3.5c1.7,1.9,5.2,6.2,7.9,9.6,2.6,3.4,8.1,9.1,12.1,12.7,7.1,6.6,7.3,6.7,13,6.7,6.5,0,7.3-.4,10.7-5,3.1-4.3,3.3-10.9.5-16.5-1.1-2.2-2-4.1-2-4.2,0-.2,1.7-.3,3.7-.3,5.8,0,7.3-2.1,7.3-10.4ZM518.69,520.71l-.3,4.5-4.1-5.3c-2.3-2.9-7.1-8.5-10.7-12.4-4.4-4.7-6.3-7.4-5.6-8.1s2.2.2,4.7,2.5c2,1.9,5.8,4.7,8.4,6.3,2.5,1.6,5.3,4.1,6.3,5.5h0c1,1.6,1.5,4.1,1.3,7Z"/>
      <path class="cls-2" d="M461.75,450.36c-.01.59-.03,1.17-.05,1.76,2.66,0,3.1-.18,3.17-2.64-1.04.29-2.08.59-3.13.88Z"/>
    </g>
    <g>
      <path class="cls-4" d="M418.89,464.11h-.21c.16,1.43.05,2.9-.4,4.32-1.42,4.54-2.58,9.11-3.48,13.71,2.37-4.31,4.1-9.39,4.1-13.33v-4.7Z"/>
      <path class="cls-4" d="M448.22,467.87c.2-4.63.32-9.26.43-13.9-.68.19-1.37.37-2.05.55.62,5.89,1.12,10.19,1.61,13.34Z"/>
      <path class="cls-4" d="M461.75,450.36c-.15,5.97-.29,11.93-.54,17.89-.3,7.07-9.67,8.16-12.32,3.25.87,3.82,1.83,4.79,3.4,5.22,4.4,1.1,8,0,9.2-2.6.64-1.27,1.93-11.94,2.99-24.52-.91.25-1.82.51-2.73.76Z"/>
    </g>
    <g>
      <path d="M527.84,503.3c-.68-1.4-1.09-2.77-1.3-4.08-.4,1.17-.66,2.14-.66,2.69,0,1.2-.4,2.2-1,2.2-.5,0-1-1.2-1-2.6,0-1.7-.6-2.8-2-3.1-1.1-.3-2-.9-2-1.4s-.4-.9-.9-.9c-1.5,0-9.8-9-11.1-12-1-2.4-1.9-3-4.1-3-2.5,0-2.9-.4-2.9-2.9s-.5-3-4.4-4c-2.5-.6-6.3-1.1-8.5-1.1-4,0-4.1.1-4.1,3.5,0,2.4.5,3.5,1.5,3.5.9,0,1.5.9,1.5,2.5,0,1.9.5,2.5,2.1,2.5,1.8,0,4.9,2.1,4.9,3.3,0,.7-17.2,2.8-25.5,3l-8,.2-.3,3.8c-.3,4-2.7,6-4.3,3.6-1.3-2-1.1-2.7,1.1-4.9,1.9-1.9,1.9-2,.1-2-1,0-2.1-.9-2.4-2-.4-1.6-1.4-2-4.6-2-2.3,0-4.1-.4-4.1-1,0-.5-1.1-1-2.4-1-3.1,0-5.6-1-5.6-2.1,0-.5,2.2-.9,4.9-.9h4.9l1-5.2c.5-2.9,1-4.3,1.1-3,.1,1.8.7,2.2,3.6,2.2,3.37,0,4.39-1.42,2.59-2.77-3.7.77-7.98-1.25-7.77-6.1.2-4.76.33-9.51.45-14.27-.89.24-1.78.48-2.66.72.58,5.54,1.14,10.46,1.5,12.72.6,3.6.5,3.7-2.4,3.7-1.7,0-3.3.6-3.5,1.3-.3.7-.6.5-.6-.5-.1-1.5-1.1-1.8-5.3-1.8-2.9,0-7.7-.3-10.5-.6-4.3-.6-5.3-1-5.3-2.5,0-.91-.3-1.42-1.15-1.67,0,1.04-.15,2.08-.47,3.09-.73,2.33-1.39,4.67-1.98,7.01.17-.2.38-.33.59-.33.6,0,1,.7,1,1.5s-.4,1.5-1,1.5c-.42,0-.84-.5-.96-1.14-.78,3.24-1.42,6.48-1.93,9.74.55,1.38,1.52,2.02,3.2,2.2,1.5.2,2.7.8,2.7,1.3s.7.9,1.5.9,1.5.5,1.5,1c0,.6,1.1,1,2.4,1s2.6.7,3,1.5c.3.9,1.8,1.5,3.5,1.5,1.6,0,3.6.7,4.5,1.5.8.8,2.8,1.5,4.4,1.5,1.7,0,3.2.6,3.6,1.5.4,1,2,1.5,5.3,1.5,8.7,0,8.8.2,8.5,8-.4,6.9-.3,7,2.1,7s2.5-.2,1.5-3.6c-.5-2-.7-4.2-.4-5.1,1.3-3.2,3.8-.3,8,8.9,5.1,11.3,13.6,24.6,19.5,30.3,4.2,4,5.2,7.1,2.6,8.1-.8.4-2.6-.1-4-1q-2.5-1.6-2.5,1.4t5.6,3h5.7l-.7-6.2c-.6-5.4-1.2-6.8-4.4-10-2-2.1-4.2-3.8-4.9-3.8s-1.3-.9-1.3-2-.4-2-.9-2-1.1-1-1.5-2.3c-.3-1.2-1.4-3.1-2.4-4.2-2.5-2.8-3.5-5.6-1.6-4.8.7.3,1.4,1.1,1.4,1.9,0,.7.6,1.7,1.3,2.1.8.4,1.6,1.6,2,2.6.3.9,1.3,1.7,2.2,1.7.8,0,1.5.8,1.5,1.8,0,2.3,1.9,4.2,4.2,4.2,1,0,1.8.7,1.8,1.7,0,3,4.1,6.3,7.7,6.3,3,0,3.3.3,3.3,3v3h7c5.6,0,7-.3,7-1.5,0-.8.7-1.5,1.5-1.5,3,0,4.8-4.6,4.3-11.7-.2-3.9-.9-6.8-1.6-7.1-2.7-.9-1.1-3.2,2.1-3.2,4.2,0,6.4-2.3,7.3-7.6.39-2.89.72-3.7,1.85-3.73-1.82-4.17-3.51-8.39-5.49-12.48ZM442.99,473.61c1.3-.9,1.6-.6,2.4,2.8.6,2.3.4,2.7-1.4,2.7-1.6,0-2.1-.6-2.1-2.4,0-1.4.5-2.8,1.1-3.1ZM420.59,484.81c-1.5,1.5-1.7,1.5-2.3-.1-.9-2.4,1.2-4.4,2.8-2.8h0c1,1,.8,1.6-.5,2.9ZM422.89,473.61c1.5-.9,3,.4,2.3,2-.3.8-1.1,1.5-1.9,1.5-1.6,0-1.9-2.6-.4-3.5ZM428.69,486.71c-.5,2.7-4.8,3.2-4.8.6,0-1.1.6-2.4,1.3-3,1.7-1.5,4,.1,3.5,2.4ZM428.39,478.21c-.9-1.6,1.5-5.5,2.7-4.3.5.5.8,1.8.6,2.8-.4,2-2.3,3-3.3,1.5ZM433.99,492.11c-2.4,0-3.3-1.3-2.5-3.4,1-2.7,4.4-2,4.4.9,0,1.8-.5,2.5-1.9,2.5ZM435.09,476.91c.5-3.4,3.8-3.7,3.8-.4h0c0,2-.5,2.6-2.1,2.6-1.5,0-2-.5-1.7-2.2ZM443.69,492.51h0c-.4,2.7-4.8,3.6-4.8.9s1.5-4.4,3.4-3.7c1,.4,1.6,1.5,1.4,2.8ZM451.39,496.11c-.7,2.3-3.3,2.7-4.1.5-.8-2.1.3-4.5,2-4.5,2,0,2.9,1.6,2.1,4ZM467.69,498.51c-.4,2.5-3.3,3.3-4.2,1.1-.3-.9-.1-2.5.5-3.6.8-1.7,1.3-1.8,2.5-.8.8.7,1.4,2.2,1.2,3.3ZM492.89,491.11c1.2,0,3,4.1,2.3,5.3-1.2,1.9-3.3.5-3.3-2.3,0-1.6.5-3,1-3ZM485.99,493.51c1.3-.8,2.9,1.3,2.9,3.9h0c0,1.7-2,2.3-3.3,1-1.1-1-.8-4.1.4-4.9ZM480.79,494.51c.6.4,1.1,1.8,1.1,3.2,0,3-2.6,3.2-3.5.3-.8-2.3.7-4.5,2.4-3.5ZM470.89,497.41c0-1.6.6-2.3,2-2.3,1.6,0,2,.7,2,3,0,1.8-.5,3-1.3,3-2,0-2.7-1-2.7-3.7ZM526.09,521.41c-2.6,2.4-4.2,2.1-4.2-.8,0-1.8-.5-2.5-2-2.5s-2,.7-2,2.5c0,1.6-.6,2.5-1.5,2.5s-1.5-.9-1.5-2.1-.8-2.3-2-2.6c-1.1-.3-2-1.3-2-2.3,0-2.6-3.5-5.2-6.4-4.8-2.5.3-2.4.6,4.9,9.3,8.4,10.1,12,16.4,11.1,19.8-.3,1.2-1.9,3.7-3.5,5.5h0c-4.7,5.1-7.7,4.5-15.9-3.1-3.8-3.4-8.2-7.8-9.8-9.7-5.9-6.8-18.4-23.6-18.4-24.7,0-.5,2.4-1.3,5.3-1.6,2.8-.3,7.4-1.3,10.1-2.2l4.8-1.7,6.8,6.6v-3.6c0-2-.5-4-1-4.3-1.5-.9-.2-2.5,2.1-2.5,1.2,0,1.9.7,1.9,1.8,0,2.1,2.9,5.2,4.8,5.2.7,0,1.2.4,1.2.9s.9,1.3,2,1.6c2.3.7,7,5.1,7,6.5,0,.6.9,1,2,1,4.3,0,1.2-6.5-4.9-10.2-7.3-4.4-12-9.2-15.6-15.9-3.6-6.5-4.5-7.3-10.7-9.3-1.9-.6-2.4-3.1-.9-4,.5-.3,3.1.1,5.9.9,5.3,1.6,6.7,2.9,12.5,12,1.9,2.9,6.3,7.3,10.5,10.5,4,3,8.2,6.9,9.2,8.5,2.6,3.9,2.6,10.6.2,12.8Z"/>
      <path d="M475.19,548.11c-.3-1.1-.9-2-1.4-2s-.9-.6-.9-1.4-.4-1.6-.9-1.8c-.5-.1-2.9-4.5-5.5-9.5-4.2-8.6-5.9-15.3-3.7-15.3.5,0,3.5,5.1,6.7,11.3,3.1,6.1,7.2,13.3,9.1,16l3.5,4.7h-3.2c-2.3,0-3.3-.5-3.7-2h0Z"/>
      <path d="M485.39,452.61l-4.3-.3c-3.7-.3-4.4,0-4.9,1.7-.3,1.2-1.4,2.1-2.4,2.1-1.2,0-1.9.7-1.9,1.9,0,1.3-.8,2.1-2.2,2.3-1.5.2-2.4,1.1-2.6,2.6-.5,3.4-3.2,2.8-3.2-.8,0-3.1-1.33-3.78-2.39-2.36-.08,2.83-.17,5.66-.3,8.49-.1,2.26-1.13,3.91-2.57,4.95.12.81.74.98,2.15,1.22h0c6.4,1,10.1.7,10.1-.8,0-.8.7-1.5,1.5-1.5s1.5-.4,1.5-.9c0-.6,1.7-1.1,3.8-1.3,3-.2,3.8-.7,4-2.5.2-1.5,1-2.3,2.3-2.3,1.8,0,2-.6,1.7-6.2l-.3-6.3ZM466.89,471.11c-.5,0-1-1-1-2.2,0-1.9.2-2,1-.8.5.8,1,1.8,1,2.3,0,.4-.4.7-1,.7ZM472.19,469.81c-1.5.6-2.8-3.6-1.4-5,1.3-1.3,2-.7,2.3,2.3h0c.2,1.2-.2,2.5-.9,2.7ZM478.09,465.31c-.8.8-1.4.4-2.3-1.6-.9-2-1-2.9-.1-3.8.8-.8,1.4-.4,2.3,1.6.9,2,1,2.9.1,3.8ZM482.89,459.11c0,3-1.9,3.3-2.6.5-.3-1.4-.4-2.8-.1-3.1,1-1,2.7.7,2.7,2.6h0Z"/>
      <path d="M461.75,450.36c-.06,2.46-.12,4.92-.19,7.38.3.28.73.38,1.33.38,1.8,0,2-.7,2-6,0-1.02-.02-1.89-.07-2.62-1.02.29-2.05.58-3.07.86Z"/>
    </g>
    <path d="M497.92,567.64c17.87-11.53,34.42-24.86,49.1-40.24-1.92-1.85-3.71-3.84-5.35-5.92-3.53-.52-6.9-2.41-8.32-5.67-1.83-4.17-3.51-8.4-5.5-12.5-1.6-3.29-1.79-6.38-1.05-9.03-7.14-18.01-19.59-33.58-36.64-43.66-2.98-1.76-4.68-4.17-5.38-6.76-7.66,2.21-15.34,4.37-23.02,6.51-.15,5.97-.29,11.93-.54,17.89-.36,8.35-13.36,8.36-13,0,.2-4.76.33-9.51.45-14.27-9.9,2.71-19.8,5.39-29.72,8.04-.22.06-.44.1-.65.14.59,2.03.65,4.2,0,6.28-2.99,9.53-4.81,19.21-5.5,28.92.71.29,1.4.71,2.02,1.29,12.94,12,26.05,23.8,39.38,35.36,8.77,7.61,18.17,16.81,19.33,28.21,7.75,1.14,15.22,3.87,22.03,8.03.48-.99,1.26-1.9,2.39-2.63ZM421.69,483.31h0c-.3,2.4-3.2,3.6-4.2,1.9-1-1.6.5-4.1,2.6-4.1,1.4,0,1.9.6,1.6,2.2ZM421.39,477.21c-.3-.6-.1-2,.5-3,1.3-2.6,4.2-1.6,3.8,1.3-.3,2.2-3.2,3.4-4.3,1.7ZM429.29,487.41h0c-.8,2.2-2.9,2.8-4.9,1.3-1.4-1-1.5-1.6-.6-3.4.6-1.2,1.8-2.2,2.5-2.2,2,0,3.7,2.5,3,4.3ZM427.89,476.61c0-2.8,2.5-4.4,4.2-2.7.5.5.7,1.9.3,3.1h0c-1,3.1-4.5,2.8-4.5-.4ZM436.29,490.91h0c-1.2,1.9-3.6,2.7-4.7,1.6-1.2-1.2-.8-4.1.9-5.4,2.2-1.9,5.4,1.2,3.8,3.8ZM435.29,478.71c-.9-2.3,0-5.1,1.6-5.1,1,0,1.5,1,1.5,2.9,0,3.2-2.1,4.7-3.1,2.2ZM443.49,493.71c-.7,2.6-2.7,3.2-4.4,1.2-1.3-1.7.3-5.8,2.2-5.8,2.1,0,2.9,1.7,2.2,4.6ZM442.49,478.61c-1.2-1.3-1.4-2.1-.5-3.6,1.3-2.5,3.3-2,3.7,1,.5,3.3-1.2,4.6-3.2,2.6ZM450.69,497.91c-2.2,2.2-3.8,1.1-3.8-2.3,0-2.6,2.4-5,4-4,1.4.8,1.3,4.8-.2,6.3ZM457.89,500.11c-2.5,0-3.7-2.6-2.3-4.9,1.7-2.7,3.8-1.9,4.1,1.7.3,2.7,0,3.2-1.8,3.2ZM517.79,545.61h0c-2.5,2.8-3.8,3.5-6.9,3.5-3.4,0-4.6-.9-13.2-9.2-7.9-7.8-25.7-29.8-25.8-31.9,0-.4,2.5-1,5.6-1.4,3.1-.4,7.4-1.3,9.6-2.1,2.2-.8,4.7-1.4,5.4-1.4,2.7,0,23.6,23.8,26.9,30.7,2.3,4.7,1.8,7.8-1.6,11.8ZM471.89,494.61c1.3-.8,4,1.2,4,2.9,0,1.9-2.4,4.4-3.7,3.9-1.6-.6-1.7-5.9-.3-6.8ZM477.89,496.91c0-2.1.5-2.8,1.9-2.8,2.2,0,3.4,2.5,2.6,5.1-.6,1.9-2.6,2.5-3.8,1.2-.4-.3-.7-1.9-.7-3.5ZM491.79,491.81c1.5-1.5,4.3,1.2,3.9,3.7-.5,3.2-3.4,3.2-4.2,0-.4-1.5-.3-3.1.3-3.7ZM488.09,476.11c6.5,0,13.5,4.6,16.8,11,1.7,3.4,5.4,7,16.9,16.8,7,6,8.7,13.3,4.3,18.5h0c-1.8,2-4.2,2.3-4.3.5,0-.7,0-3.1.1-5.4.2-4.6-3.1-9.3-8.2-12-5.3-2.7-11.9-9.6-14.9-15.5-3.1-6.2-3.8-6.9-8.4-8.4-3.1-1-5-5.5-2.3-5.5ZM486.39,493.11c2.2,0,3.9,3.8,2.4,5.6h0c-1.7,2.1-2.8,1.7-3.9-1.2s-.6-4.4,1.5-4.4ZM479.79,455.81c1.5-1.5,3.1.2,3.1,3.4,0,1.6-.5,2.9-1,2.9-1.6,0-3.3-5.1-2.1-6.3ZM476.29,459.11c1.5,0,2.6,2.1,2.6,5h0c0,2.7-1.7,3.4-2.9,1.1-1.5-2.8-1.4-6.1.3-6.1ZM470.99,463.51c1.4-.8,3,1.5,2.7,4h0c-.3,2.1-2,3.1-3.1,2s-.8-5.2.4-6ZM466.89,467.61c.6.3,1,1.5,1,2.6,0,1-.4,1.9-1,1.9-.5,0-1-1.2-1-2.6s.4-2.3,1-1.9ZM465.39,494.61c1.5,0,2.1.8,2.3,3.3.3,2.7,0,3.2-1.8,3.2-1.1,0-2.3-.6-2.6-1.4-1-2.6.1-5.1,2.1-5.1ZM482.09,549.71c-7.5-8.1-21.5-34.6-21-39.9.4-4.4,3.5-4.9,4.9-.8,4.1,11.7,13.8,28.1,21.5,36.3,3.7,3.8,5.4,6.5,5.4,8.2h0c0,4.8-4.1,3.3-10.8-3.8Z"/>
  </g>
  <g id="Layer_4" data-name="Layer 4">
    <path d="M413.6,486.93c2.09-5.61,4.16-11.23,6.21-16.86.6-1.64,1.2-3.36.93-5.08s-1.74-3.39-3.47-3.23c-1.05,6.99-2.6,13.91-4.64,20.67-.56,1.84-.98,4.22.57,5.35.35-.58.7-1.16.41-.86Z"/>
    <path d="M463.34,447.94c-.17,8.47-.74,16.94-1.7,25.36-.17,1.45-.9,3.35-2.34,3.12-1.61-.27-1.41-2.65.27-6.03.64-7.6,1.27-15.19,1.91-22.79.08-.92.21-1.94.95-2.5s2.14.03,1.87.91c-.67.77-1.15,1.7-.95,1.93Z"/>
    <path d="M444.72,449.61c1.22,1.53,2.44,3.06,3.59,4.83.05,4.25.1,8.5.72,12.87.34,3.52.43,7.07.27,10.61-1.83-1.06-2.87-3.14-3.24-5.22s-.19-4.21-.15-6.33c.08-4.46-.51-8.94-1.76-13.23-.47-1.62-.84-3.76.57-3.54Z"/>
    <path d="M461.76,465.62l-1.38,15.07c-1.11.55-1.85-1.23-1.79-2.46.23-4.87,1.07-9.72,2.48-14.39.32,1.09.43,2.23.7,1.78Z"/>
    <path d="M448.8,469.89l7.38,7.12c.14.13.28.27.37.44.41.76-.47,1.71-1.33,1.67s-1.57-.67-2.15-1.32c-1.96-2.22-3.27-4.99-4.27-7.91Z"/>
    <path d="M450.06,473.02c2.5,1.4,5.73,1.39,8.23-.01-.92.94-1.85,1.88-2.72,2.54.94-.69,2.14-1.02,3.29-.9-.02.51-.03,1.02-8.81-1.64Z"/>
    <line x1="449.22" y1="473.53" x2="461.89" y2="476.03"/>
  </g>
</svg>